<?xml version="1.0" encoding="UTF-8"?>
<!DOCTYPE svg PUBLIC "-//W3C//DTD SVG 1.0//EN" "http://www.w3.org/TR/2001/REC-SVG-20010904/DTD/svg10.dtd">
<!-- Creator: CorelDRAW 2020 (64 Bit) -->
<svg xmlns="http://www.w3.org/2000/svg" xml:space="preserve" width="210mm" height="297mm" version="1.0" style="shape-rendering:geometricPrecision; text-rendering:geometricPrecision; image-rendering:optimizeQuality; fill-rule:evenodd; clip-rule:evenodd"
viewBox="0 0 21000 29700"
 xmlns:xlink="http://www.w3.org/1999/xlink"
 xmlns:xodm="http://www.corel.com/coreldraw/odm/2003">
 <defs>
  <style type="text/css">
   <![CDATA[
    .fil1 {fill:#4B5E6B}
    .fil0 {fill:#543115}
    .fil3 {fill:#925A24}
    .fil2 {fill:#C18A3A}
    .fil4 {fill:#E9DBC5}
   ]]>
  </style>
 </defs>
 <g id="Camada_x0020_1">
  <metadata id="CorelCorpID_0Corel-Layer"/>
  <g id="_2896564049600">
   <path class="fil0" d="M15383.73 17150.78c204.14,248.32 284.98,3002.62 293.03,3239.51 37.75,1110.55 117.47,2213.61 192.4,3319.78 -155.44,35.03 -115.61,66.72 -235.42,136.8 -60.9,-100.18 -56.15,-266.93 -65.38,-383.93 -10.65,-134.95 -16.22,-268.04 -26.57,-404.51 -114.48,-1508.06 -206.92,-4569.16 -158.06,-5907.65zm-351.08 1185.88c-426.16,-119.66 -699.8,-382.39 -865.99,-783.53 20.01,20.14 31.76,35.35 54.96,57.54l147.23 168.48c72.48,92.82 133.14,109.86 212.28,191.36 81.5,83.92 123.42,106.11 226.17,177.51 121.16,84.19 119.35,60.61 225.35,188.64zm-2701.47 13.7c162.23,-142.18 732.69,-773.32 863.09,-983.8 -61.64,254.31 -259.72,553.45 -461.95,715.43 -66.55,53.3 -182.89,248.68 -401.14,268.37zm1034.26 -1330.46c58.66,-189.32 156.71,-272.48 216.95,-424.66 45.27,30.2 15.08,7.8 52.6,42.82l80.66 93.6c43,58.56 55.65,80.85 92.38,137.93 57.3,89.03 125.14,190.77 166.74,321.06 -109,-40.97 -45.99,7.02 -121.54,-80.98l-226.82 -260.34c-122.3,67.51 -95.24,101.3 -260.97,170.57zm-2195.31 8260.38c21.95,-569.42 140.34,-1205.13 194.3,-1789.01 55.47,-600.21 113.67,-1212.62 178.53,-1810.74 102.37,-944.04 297.6,-3863.91 443.71,-4544.5 81.37,-379.03 47.49,-431.9 259.38,-607.93 34.76,-28.87 24.52,-24.24 61.5,-54.24 143.75,-116.68 534.76,-307.43 604.63,-402.65 89.94,-122.57 37.76,-679.08 83.74,-895.82 45.76,-215.68 200.54,-749.93 375.07,-895.46 169.82,-141.6 364.1,-31.03 449.7,127.57 293.31,543.4 304.62,972.95 360.59,1604.85 60.1,45.24 1004.78,478.41 1132.75,627.59 -299.76,-76.15 -800.87,-285.67 -1018.19,-429.01 -12.19,11.99 -37.12,50 -38.38,51.29 -49.99,51.36 6.49,25.59 -63.27,48.34 -161.49,-192.93 -160.73,-135.79 -161.94,-488.1 -2.12,-617.35 9.89,-549.56 -242.75,-1070.93 -72.6,-149.84 -120.79,-323.13 -231.75,-394.55 -174.78,45.71 -415.03,641.15 -461.65,828.54 -97.8,393.06 115.27,702.11 -110.56,1122.87l-47.75 -67.55c-39.5,-49.94 16.77,-6.25 -35.19,-36.77 -225.93,199.82 -637.71,369 -708.05,619.61 -94.99,338.46 -293.05,3147.26 -329.79,3610.74 -56.5,712.8 -308.43,4169.82 -449.06,4837.78l-245.57 8.08zm2709.59 -12053.16c-94.61,84.31 -199.3,135.89 -324.31,32.49 -258.46,-213.77 -375.21,-735.55 -347.23,-1060.15 100.81,119.62 40.8,134.92 102.73,351.67 203.62,712.63 510.15,628.69 568.81,675.99zm-547.81 -4119.22l-21.51 92.34c-100.56,416.1 185.82,743.41 163.05,871.96l-161.3 21.36c-148.26,-194.16 -344.26,-525.15 -256,-886.65l44.97 -95.26c69.31,-186.96 159.36,-238.67 384.64,-291.97l-153.85 288.22zm1385.1 942.93c70.51,-163.61 215.35,-318.43 216.32,-630.43 0.97,-313.45 -129.17,-418.94 -234.87,-590.33 225.63,-3.53 448.06,238.39 469.15,534.32 25.61,359.25 -144.78,538.45 -278.81,729.01l-171.79 -42.57zm-2081.89 -924.82l-37.8 256.12c6.36,265.15 98.05,525.65 226.53,686.24 134.37,167.96 125.91,6.24 141.17,244.05 11.63,181.2 75.63,180.75 134.02,290.88 -42.58,87.85 -103.63,158.48 -151.75,253.45 -42.61,84.08 -70.47,179.39 -107.06,274.94l-56.71 199.98c-111.05,439.9 -98.02,984.41 -209.78,1460.69 -249.02,1061.32 -651.11,1383.19 -1058.51,2285.31 -189.8,420.28 -273.46,823.09 -434.41,1237.39 -228.75,871.72 -335.86,1707.41 -481.15,2662.39 -139.63,917.79 -335.27,1746.2 -543.38,2599.18 -1002.45,51.83 -628.89,41.51 -1501.27,211.96 -56.16,81.82 41.58,62.72 262.35,186.32 116.19,65.05 230.62,124.92 331.56,187.68 228.94,142.35 443.43,276.12 654.07,409.25 -76.06,241.4 -246.97,1070.73 -344.38,1208.32l-87.1 360.14 -322.5 1076.11c-1164.15,-111.47 -2389.89,-692.74 -3372.32,-1223.75l-864.55 -578.86c-179.31,-143.97 -654.34,-494.09 -784.55,-656.71 -106.5,-132.99 -172.54,-181.69 -281.14,-295.85 -119.11,-125.22 -156.02,-93.47 -297.04,-278.42l-268.94 -326.44c-41.91,-49.82 -60,-87.3 -103.32,-136.56 -79.17,-90.04 -65.2,-72.28 -122.68,-173.43 -65.61,-39.42 -133.89,-152.86 -179.04,-219.37 -62.52,-92.07 -133.21,-159.95 -171.62,-269.72l-68.11 -86.31c-194.41,-177.65 -721.57,-1281.51 -807.07,-1516.41l797.38 -0.38 13.11 -615.96 -860.66 436.21c-135.95,-137.78 -470.3,-1315.83 -518.91,-1592.7 -163.92,-325.1 -279.73,-1992.68 -278.28,-2436.3 5.08,-1560.55 370.5,-3034.54 1044.06,-4394.22 155.77,-314.45 306.72,-589.03 478.92,-877.4 181.62,-304.14 607.17,-883.49 845.91,-1173.09l316.66 -345.14c178.58,-189.08 480.86,-522.24 687.19,-668.96l383.38 -308.84c76.47,-56.35 120.88,-97.06 193.01,-152.62 1406.24,-1083.08 3277.68,-1773.88 5180.58,-1888.76 2313.74,-139.69 4927.89,702.6 6602.51,2168.64l353.18 309.97c308.01,253.36 183.95,214.88 517.41,491.74 100,83.04 203.3,245.61 310.28,353 53.46,53.68 108.51,116.44 160.95,184.35 1228.99,1591.48 1943.06,3151.72 2181.7,5232.93 54.16,472.37 130.34,2140.31 -37.09,2481.95l2.7 110.15c-53.15,796.37 -419.13,1869.41 -701.41,2561.15 -228.92,560.96 -799.55,1640.68 -1172.49,2060.23 -188.73,-275.92 -519.59,-2071.54 -605.61,-2540.87l-493.71 -2637.85c-46.68,-111.49 -68.4,-292.9 -104.3,-423.37 -37.53,-136.34 -84.58,-274.86 -125.28,-398.95 -71.53,-218.07 -175.59,-547.68 -280.88,-738.04 -307.5,-636.01 -631.13,-1177.21 -867.31,-1917.52 -108.72,-340.76 -202.17,-747.2 -275.9,-1106.89 -36.41,-177.66 -80.91,-382.77 -140.96,-551.12 -31.68,-88.78 -70.06,-166.64 -106.93,-239.63 -48.68,-96.4 -92.23,-132.21 -131.51,-205.86 59.93,-106.11 138.58,-130.06 148.45,-316.08 10.84,-204.4 19.1,-140.65 132.86,-284.17 318.1,-401.28 325.23,-936.33 -103.33,-1316.58 -192.15,-170.5 -438.93,-187.75 -736.24,-165.26 -117,-169.19 21.54,-108.67 -259.4,-392.52 22.2,-122.49 87.83,-178.91 24.33,-314.11 -101.94,-217.05 -395.29,-189.94 -444.99,34.3 -39.12,176.46 31.52,162.55 46.86,308.85 -185.68,149.02 -102.09,139.83 -212,358.68 -287.17,9.31 -478.74,-4.36 -706.07,133.1 -237.62,143.68 -202.78,221.32 -351.69,449.37zm-12361.93 6696.1c87.34,2239.45 1041.05,4923.45 2557.19,6603.45 64.86,71.87 82.58,126.98 154.08,193.02 80.49,74.35 91.38,72.6 160.99,155.47 406.88,484.42 1187.97,1123.97 1755.19,1503.41 3086.07,2064.43 6870.09,2290 10211.87,623.61 846.87,-422.29 1310.63,-814.66 1948.62,-1336.32l336.68 -298.2c271.62,-225.68 408.42,-402.69 641.9,-656.49l320.16 -342.15c80.61,-82.56 206.18,-258.23 293.48,-369.67 1471.4,-1878.42 2247.36,-4537.57 2166.88,-6941.34 -55.68,-1663.1 -412.39,-2875 -1005.15,-4238.41 -185.5,-426.68 -662.63,-1240.38 -970.42,-1653.46l-733.25 -910.85 -808.21 -805.78c-43.85,-32.4 -57.41,-36.38 -99.49,-74.64 -313.17,-284.8 -649.75,-528.31 -1014.03,-773.5 -1753.99,-1180.57 -3827.6,-1785.2 -6070.33,-1704.93 -1451.87,51.98 -3023.24,482.07 -4144.86,1078.96 -842.46,448.33 -915.99,528.35 -1608.57,1015.02l-1345.52 1250.53c-73.48,79.78 -101.72,82.83 -169.22,176.24 -60.67,83.94 -77.08,93.33 -145.54,171.48 -254.59,290.6 -602.11,799.96 -819.41,1141.56 -1147.26,1803.61 -1700.43,3952.08 -1613.04,6192.99z"/>
   <path class="fil1" d="M1159.56 17681.75c80.15,-184.05 917.22,-219.76 1031.66,486.23 168.19,-31.8 189.32,-49.58 356.68,0.95l4.16 -1616.95 -339.92 -24.1c35.13,-62.24 180.14,-152.14 239.46,-192 94.31,-63.37 182.22,-130.43 269.71,-191.98 597.78,-420.58 1702.55,-1233.05 2252.11,-1555.93 165.92,-97.47 222.57,26.31 625.65,196.34 58.87,24.83 914.53,609.43 1201.04,737.65 -37.95,-673.01 191.4,-1284.12 555.71,-1693.12l412.19 -365.02c234.28,-177.58 430.75,-202.23 694.92,-352.03 17.64,-206.15 -18.83,-415.11 129.77,-551.93l133.97 -111.24 -19.36 -264.25c-209.03,22.99 -405.48,-100.19 -599.04,-144.19 -78.73,82.02 -137.1,202.97 -198.5,296.05l-1299.76 2044.14c54.86,-293.63 1045.22,-2373.58 1055.98,-2582.72 -111.88,-107.88 -48.88,-9.24 -260.9,-231.38 -62.77,-65.77 -184.72,-186.24 -248.31,-236.75 -390.39,185.04 -1829.63,1219.43 -2369.92,1442.77 51.54,-109.41 415.57,-392.43 524.71,-497.08 176.4,-169.13 363.63,-302.27 533.96,-445.96 100.61,-84.86 1015.12,-825.87 1115.99,-868.04 -88.82,-270.57 -159.28,-452.31 -179.11,-779.63l-2987.19 -230.86 2978.36 -221.15c31.02,-176.13 45.17,-310.47 99.02,-477.17 61.36,-189.94 150.18,-252.61 12.26,-363.83 -643.99,-519.32 -1266.71,-990.58 -1891.32,-1536.58 408.48,165.43 2022.28,1121.66 2259.57,1200.86 176.14,-265.89 350.1,-348.12 497.11,-515.7 -156.29,-392.93 -694.24,-1217.61 -900.05,-1757.79 106.24,57.98 110.71,116.21 174.91,188.86l995.74 1138.51c37.48,43.42 140.95,139.27 173.95,168.59 192.27,-55.31 389.97,-142.08 606.76,-160.59l207.23 -1813.13 223.28 1775.41c263.41,34.49 457.15,82.86 696.44,123.76l1169.77 -1987.82 -767.29 2180.03c102.11,122.29 266.47,148.55 414.15,384.36 374.23,-182.91 1913.13,-1361.76 2356.34,-1596.72 -78.67,143.17 -1300.45,1297.27 -1519.79,1514.2l-489.79 485.03c38.69,97.76 85.03,168.73 126.67,283.04 32.92,90.34 71,221.56 119.22,292.32l1297.36 -129.2c148.91,-228.05 114.07,-305.69 351.69,-449.37 227.33,-137.46 418.9,-123.79 706.07,-133.1 109.91,-218.85 26.32,-209.66 212,-358.68 -15.34,-146.3 -85.98,-132.39 -46.86,-308.85 49.7,-224.24 343.05,-251.35 444.99,-34.3 63.5,135.2 -2.13,191.62 -24.33,314.11 280.94,283.85 142.4,223.33 259.4,392.52 297.31,-22.49 544.09,-5.24 736.24,165.26 428.56,380.25 421.43,915.3 103.33,1316.58 -113.76,143.52 -122.02,79.77 -132.86,284.17 -9.87,186.02 -88.52,209.97 -148.45,316.08 39.28,73.65 82.83,109.46 131.51,205.86 36.87,72.99 75.25,150.85 106.93,239.63 60.05,168.35 104.55,373.46 140.96,551.12 73.73,359.69 167.18,766.13 275.9,1106.89 236.18,740.31 559.81,1281.51 867.31,1917.52 167.33,-121.87 168.32,-161.74 463.2,-136.42 -14.81,-499.52 382.01,-897.71 907.06,-847.37 452.7,43.39 872.78,445.37 885.81,900.76 570.9,-304.72 978.04,18.9 1025.91,540.29 116.69,-12.94 82.42,-32.96 183.62,7.81l15.38 1542.48c167.43,-341.64 91.25,-2009.58 37.09,-2481.95 -238.64,-2081.21 -952.71,-3641.45 -2181.7,-5232.93 -52.44,-67.91 -107.49,-130.67 -160.95,-184.35 -106.98,-107.39 -210.28,-269.96 -310.28,-353 -333.46,-276.86 -209.4,-238.38 -517.41,-491.74l-353.18 -309.97c-1674.62,-1466.04 -4288.77,-2308.33 -6602.51,-2168.64 -1902.9,114.88 -3774.34,805.68 -5180.58,1888.76 -72.13,55.56 -116.54,96.27 -193.01,152.62l-383.38 308.84c-206.33,146.72 -508.61,479.88 -687.19,668.96l-316.66 345.14c-238.74,289.6 -664.29,868.95 -845.91,1173.09 -172.2,288.37 -323.15,562.95 -478.92,877.4 -673.56,1359.68 -1038.98,2833.67 -1044.06,4394.22 -1.45,443.62 114.36,2111.2 278.28,2436.3z"/>
   <path class="fil0" d="M6934.67 16553.14l2344.04 451.8 -3.73 1673.95 -1303.53 -132.93c-217.61,-24.32 -370.46,194.86 -637.25,394.1 -155.3,115.98 -106.69,121.78 -206.25,160.28 -169.01,-437.69 -212.79,-1988.66 -193.28,-2547.2zm840.54 -1664.96c-51.61,-676.44 437.79,-1462.3 886.42,-1571.12 -36.34,52.04 -168.41,143.1 -314.94,322.36 -182.62,223.39 -538.05,1014.39 -571.48,1248.76zm932.1 -2703.81l19.36 264.25 -133.97 111.24c-148.6,136.82 -112.13,345.78 -129.77,551.93 -264.17,149.8 -460.64,174.45 -694.92,352.03l-412.19 365.02c-364.31,409 -593.66,1020.11 -555.71,1693.12 -286.51,-128.22 -1142.17,-712.82 -1201.04,-737.65 -403.08,-170.03 -459.73,-293.81 -625.65,-196.34 -549.56,322.88 -1654.33,1135.35 -2252.11,1555.93 -87.49,61.55 -175.4,128.61 -269.71,191.98 -59.32,39.86 -204.33,129.76 -239.46,192l339.92 24.1c96.18,-53.93 186.7,-114.11 278.56,-184.02l1315.41 -933.57c82.33,-56.72 177.32,-129.11 269.29,-191.15l261.81 -172.54 1639.9 1072.79c184.86,121.52 384.43,229.61 552.71,353.28l0.5 4657.81c78.95,70.71 175.47,79.51 286.4,104.65l-8.69 -2081.4c153.11,-36.95 1109.93,-24.73 1222.11,19.82l14.67 2542.47c4.03,5.92 14.83,13.82 17.18,12.94 1.73,-0.65 12.67,-5.81 14.46,-6.59 2.5,-1.08 10.8,-10.62 17.61,-13.55l18.3 -2546.05 2068.99 132.76c-138.65,-152.76 -928.51,-481.22 -1163.31,-622.05l5.1 -1673.13 1369.05 -10.14 301.95 -695.9 -213 -14.89 -346.29 63.73c9.35,-242.68 73.11,-707.17 -146.34,-698.15 -228.7,83.59 -132.82,522.46 -143.61,758.51 -116.7,81.27 -315.38,144.95 -446.27,216.25l-419.28 245.24c-254.29,-104.16 -737.83,-418.09 -959.08,-475.94 15.24,-233.6 59.89,-665.25 -136.58,-761.7 -299.86,15.64 -154.7,364.8 -205.84,593.5l-322.45 -192.18c-6.29,-118.56 36.57,-331.31 -58.49,-371.05 -179.11,-74.89 -190.48,135.92 -220.55,202.23 -158.47,-71.66 -464.3,-246.97 -578.57,-350.19l2.31 -208.33c1302.44,-56.66 2684.11,-19.48 3986.9,42.94 4.96,-387.53 -59.95,-664.21 -207.25,-990.67 -66.21,-146.74 -145.62,-261.85 -227.65,-377.31 -137.5,-193.52 -219.79,-241.64 -249.46,-328.31 -127.22,-54.23 -95.69,-58.07 -177.87,-138.6 -63.68,-62.41 -79.3,-47.29 -151.63,-133.45 -108.13,-48.12 -206.92,-129.86 -336.14,-185.83 -117,-50.67 -248.68,-79.1 -360.58,-131.25 1.82,-343.56 9.04,-515.88 -269.06,-595.47l8.9 -290.85 -87.11 -235.48 -61.76 223.21z"/>
   <path class="fil2" d="M6489.68 20500.68l-312.12 8.85c3.92,-233.94 -98.39,-826.74 147.62,-850.51 262.16,-25.33 156.93,620.3 164.5,841.66zm-3288.93 -73.47l-300.27 1.62c-6.05,-209.42 -91.48,-779.5 135.27,-794.84 263.67,-17.84 169.06,582.71 165,793.22zm3186.41 -2152.98c170.71,191.42 88.96,400.17 93.05,855.46l-304.48 19.79c25.86,-588.78 -102.26,-858.92 211.43,-875.25zm-3390.78 2.93c353.23,4.91 140.04,306.53 213.26,871.81l-316.21 3.57c5.26,-173.91 0.58,-337.52 1.32,-505.37 1.02,-231.62 -25.54,-222.77 101.63,-370.01zm3485.36 -408.35l-297.12 -5.05c-16.84,-204.29 -77.1,-752.78 138.56,-763.95 230.55,-11.94 157.77,559.85 158.56,769zm-3536.26 -724.15c363.54,-184.17 261.54,443.79 261.57,717.88l-305.12 4.76c4.72,-219.1 -16.73,-542.64 43.55,-722.64zm-393.42 -592.68l-4.16 1616.95 0.61 680.52c4.75,9.87 -17.39,1892.91 -12.8,2121.54l68.11 86.31c312.52,-58.41 669.95,-167.5 995.44,-176.79l-18.74 -1165.26c123.04,-1130.64 -326.9,-2511.89 369.13,-3179.25 89,-85.35 49.9,-91.27 175.46,-168.94 307.61,-190.32 677.95,-245.97 1041.17,-53.06l345.18 287.9c69.18,89.04 184.47,291.31 224.88,440.61 86.28,318.91 46.65,3525.85 22.84,3875.82l1111.06 236.25 -0.5 -4657.81c-168.28,-123.67 -367.85,-231.76 -552.71,-353.28l-1639.9 -1072.79 -261.81 172.54c-91.97,62.04 -186.96,134.43 -269.29,191.15l-1315.41 933.57c-91.86,69.91 -182.38,130.09 -278.56,184.02z"/>
   <path class="fil0" d="M3580.52 19715.25l34.34 1168.39c554.77,-116.91 1572.75,-29.8 2144.32,34.69 23.81,-349.97 63.44,-3556.91 -22.84,-3875.82 -40.41,-149.3 -155.7,-351.57 -224.88,-440.61l-345.18 -287.9c-363.22,-192.91 -733.56,-137.26 -1041.17,53.06 -125.56,77.67 -86.46,83.59 -175.46,168.94 -696.03,667.36 -246.09,2048.61 -369.13,3179.25z"/>
   <path class="fil1" d="M17129.41 16211.81l493.71 2637.85c86.02,469.33 416.88,2264.95 605.61,2540.87 372.94,-419.55 943.57,-1499.27 1172.49,-2060.23 282.28,-691.74 648.26,-1764.78 701.41,-2561.15 -183.47,-83.94 -224.31,-166.3 -497.95,-216.68 -291.06,-53.58 -408.08,14.64 -666.52,64.88 -65.63,-304.96 -724.39,-1006.02 -1487.92,-294.64 -137.28,-72 -143.03,-86.06 -320.83,-110.9z"/>
   <path class="fil1" d="M10142.56 13672.09c29.67,86.67 111.96,134.79 249.46,328.31 82.03,115.46 161.44,230.57 227.65,377.31 147.3,326.46 212.21,603.14 207.25,990.67l-5.86 935.14 213 14.89 46.76 -3.35c160.95,-414.3 244.61,-817.11 434.41,-1237.39 407.4,-902.12 809.49,-1223.99 1058.51,-2285.31 111.76,-476.28 98.73,-1020.79 209.78,-1460.69l-1561.26 -476.56c-77.48,116.45 -110.76,212.84 -189.28,337.25 -48.03,76.1 -181.72,240.69 -206.24,306.94l1289.82 1698.3c85.95,114.59 111.09,112.28 160.93,234.62 -60.36,-65.94 -158.74,-114.87 -232.96,-191.6 -128.67,-133.04 -487.85,-397.17 -689.22,-607.37l-911.54 -800.53c-113.56,78.28 -473.45,235.27 -537.61,299.18l236.4 1540.19z"/>
   <path class="fil3" d="M6870.24 21154.58l-1111.06 -236.25c-571.57,-64.49 -1589.55,-151.6 -2144.32,-34.69l-34.34 -1168.39 18.74 1165.26c-325.49,9.29 -682.92,118.38 -995.44,176.79 38.41,109.77 109.1,177.65 171.62,269.72 45.15,66.51 113.43,179.95 179.04,219.37 5.55,-2.77 14.97,-11.25 17.76,-5.51l493.92 -9.46c456.39,-0.62 1030.29,78.59 1464.58,182.64 855.88,205.07 1570.71,533.23 2318.39,963.38 635.63,365.69 1338,777.57 2053.26,977.89 138.7,38.85 160.24,14.36 156.23,124.83 97.41,-137.59 268.32,-966.92 344.38,-1208.32 -210.64,-133.13 -425.13,-266.9 -654.07,-409.25 -100.94,-62.76 -215.37,-122.63 -331.56,-187.68 -220.77,-123.6 -318.51,-104.5 -262.35,-186.32l-86.54 -3.92 -16.2 -2597.8 -18.3 2546.05c-6.81,2.93 -15.11,12.47 -17.61,13.55 -1.79,0.78 -12.73,5.94 -14.46,6.59 -2.35,0.88 -13.15,-7.02 -17.18,-12.94 -201.71,-71.71 -411.28,-182.52 -603.74,-258.88 -190.62,-75.63 -403.38,-158.6 -612.93,-221.13l17.68 -2082.94 1184.32 20.48c-112.18,-44.55 -1069,-56.77 -1222.11,-19.82l8.69 2081.4c-110.93,-25.14 -207.45,-33.94 -286.4,-104.65z"/>
   <path class="fil2" d="M9678.03 20101.08c366.49,-86.27 189.17,661.04 189.07,661.25l-222.17 12.75c6.58,-219.4 -16.36,-484.05 33.1,-674zm-423.6 -16.36c275.22,-73.42 207.51,295.36 198.31,660.82l-228.55 11.76c0.95,-196.19 -31.02,-525.43 30.24,-672.58zm-258.25 -45.78c55.13,180.31 31.48,480 25.43,706.82l-238.29 2.9c-12.92,-145.68 -7.37,-315.11 -9.89,-459.07 -3.55,-203.73 16.48,-295.16 222.75,-250.65zm1023.79 -1576.57c-26.65,-144.42 -12.58,-301.63 -13.95,-449.61 -1.39,-149.64 -15.54,-326.39 150.66,-324.35 160.55,1.98 125.55,199.72 127.15,353.73 1.46,139.5 12.14,287.29 -11.35,423.36l-252.51 -3.13zm-1567.69 724.5l16.2 2597.8 86.54 3.92c872.38,-170.45 498.82,-160.13 1501.27,-211.96 208.11,-852.98 403.75,-1681.39 543.38,-2599.18 145.29,-954.98 252.4,-1790.67 481.15,-2662.39l-46.76 3.35 -301.95 695.9 -1369.05 10.14 -5.1 1673.13c234.8,140.83 1024.66,469.29 1163.31,622.05l-2068.99 -132.76z"/>
   <path class="fil3" d="M9371.52 24140.3c-312.63,32.09 -1339.34,-307.13 -1646.55,-438.41 -517.97,-221.37 -971.59,-449.11 -1430.06,-703.57 -875.58,-485.97 -1976.78,-1004.49 -3114.43,-1141.94l268.94 326.44c141.02,184.95 177.93,153.2 297.04,278.42 108.6,114.16 174.64,162.86 281.14,295.85 130.21,162.62 605.24,512.74 784.55,656.71l864.55 578.86c982.43,531.01 2208.17,1112.28 3372.32,1223.75l322.5 -1076.11z"/>
   <path class="fil2" d="M3180.48 21856.38c1137.65,137.45 2238.85,655.97 3114.43,1141.94 458.47,254.46 912.09,482.2 1430.06,703.57 307.21,131.28 1333.92,470.5 1646.55,438.41l87.1 -360.14c4.01,-110.47 -17.53,-85.98 -156.23,-124.83 -715.26,-200.32 -1417.63,-612.2 -2053.26,-977.89 -747.68,-430.15 -1462.51,-758.31 -2318.39,-963.38 -434.29,-104.05 -1008.19,-183.26 -1464.58,-182.64l-493.92 9.46c-2.79,-5.74 -12.21,2.74 -17.76,5.51 57.48,101.15 43.51,83.39 122.68,173.43 43.32,49.26 61.41,86.74 103.32,136.56z"/>
   <path class="fil2" d="M8814.23 18347.76l-229.78 -23.98c-27.65,-130.62 -14.14,-313.44 -17.46,-454.78 -3.25,-137.44 -32.61,-341.38 118.7,-346.69 199.07,-6.98 119.55,485.03 128.54,825.45zm-612.76 -877.09c252.11,25.61 169.38,574.05 165.28,808.77l-225.03 -10.42c-21.95,-141.65 -11.07,-287.77 -13.91,-428.68 -4,-198.09 -35.8,-261.27 73.66,-369.67zm-525.7 701.71c-19.96,-36.55 -13.61,-16.75 -24.26,-74.57l-1.93 -402.72c-1.93,-142.36 -8.39,-319.43 139.38,-310.7 146.97,8.69 114.33,195.09 110.93,340.1 -3.62,154.42 3.39,306.41 -4.07,470.75l-220.05 -22.86zm-458.27 -77.46c-11.75,-160.91 -4.63,-324.24 -6.36,-485.91 -1.53,-142.95 -17.51,-335.42 142.24,-311.09 130.25,19.83 106.32,221.17 107.84,369.41 1.59,155.15 11.48,312.4 -4.29,469.84l-239.43 -42.25zm-282.83 -1541.78c-19.51,558.54 24.27,2109.51 193.28,2547.2 99.56,-38.5 50.95,-44.3 206.25,-160.28 266.79,-199.24 419.64,-418.42 637.25,-394.1l1303.53 132.93 3.73 -1673.95 -2344.04 -451.8z"/>
   <path class="fil2" d="M9909.42 15694.05c52.04,215.95 28.22,504.12 32.77,748.13l-290.74 3.76c-15.94,-160.35 -9.63,-379.44 -7.69,-539.02 3.14,-256.81 67.38,-279.05 265.66,-212.87zm-836.51 -30.03c64.93,188.45 43.82,528.51 38.09,755.69l-362.65 4.43c-27.32,-475.4 -96.1,-911.22 324.56,-760.12zm1748.15 639.5l5.86 -935.14c-1302.79,-62.42 -2684.46,-99.6 -3986.9,-42.94l-2.31 208.33c114.27,103.22 420.1,278.53 578.57,350.19 30.07,-66.31 41.44,-277.12 220.55,-202.23 95.06,39.74 52.2,252.49 58.49,371.05l322.45 192.18c51.14,-228.7 -94.02,-577.86 205.84,-593.5 196.47,96.45 151.82,528.1 136.58,761.7 221.25,57.85 704.79,371.78 959.08,475.94l419.28 -245.24c130.89,-71.3 329.57,-134.98 446.27,-216.25 10.79,-236.05 -85.09,-674.92 143.61,-758.51 219.45,-9.02 155.69,455.47 146.34,698.15l346.29 -63.73z"/>
   <path class="fil2" d="M11170.13 25280.28l245.57 -8.08c140.63,-667.96 392.56,-4124.98 449.06,-4837.78 36.74,-463.48 234.8,-3272.28 329.79,-3610.74 70.34,-250.61 482.12,-419.79 708.05,-619.61 51.96,30.52 -4.31,-13.17 35.19,36.77l47.75 67.55c225.83,-420.76 12.76,-729.81 110.56,-1122.87 46.62,-187.39 286.87,-782.83 461.65,-828.54 110.96,71.42 159.15,244.71 231.75,394.55 252.64,521.37 240.63,453.58 242.75,1070.93 1.21,352.31 0.45,295.17 161.94,488.1 69.76,-22.75 13.28,3.02 63.27,-48.34 1.26,-1.29 26.19,-39.3 38.38,-51.29 217.32,143.34 718.43,352.86 1018.19,429.01 -127.97,-149.18 -1072.65,-582.35 -1132.75,-627.59 -55.97,-631.9 -67.28,-1061.45 -360.59,-1604.85 -85.6,-158.6 -279.88,-269.17 -449.7,-127.57 -174.53,145.53 -329.31,679.78 -375.07,895.46 -45.98,216.74 6.2,773.25 -83.74,895.82 -69.87,95.22 -460.88,285.97 -604.63,402.65 -36.98,30 -26.74,25.37 -61.5,54.24 -211.89,176.03 -178.01,228.9 -259.38,607.93 -146.11,680.59 -341.34,3600.46 -443.71,4544.5 -64.86,598.12 -123.06,1210.53 -178.53,1810.74 -53.96,583.88 -172.35,1219.59 -194.3,1789.01z"/>
   <path class="fil2" d="M7629.29 20690.05c6.91,-366.56 -61.57,-631.41 78.77,-767.11 273.13,7 176.04,306.49 190.38,779.49l-269.15 -12.38zm755.44 1050.07l-14.67 -2542.47 -1184.32 -20.48 -17.68 2082.94c209.55,62.53 422.31,145.5 612.93,221.13 192.46,76.36 402.03,187.17 603.74,258.88z"/>
   <path class="fil1" d="M12840.23 11131.69c36.59,-95.55 64.45,-190.86 107.06,-274.94 48.12,-94.97 109.17,-165.6 151.75,-253.45 -58.39,-110.13 -122.39,-109.68 -134.02,-290.88 -15.26,-237.81 -6.8,-76.09 -141.17,-244.05 -128.48,-160.59 -220.17,-421.09 -226.53,-686.24 -294.5,116.04 -872.08,286.11 -1201.64,361.35l-30.89 653.79 1475.44 734.42z"/>
   <path class="fil2" d="M15383.73 17150.78c-48.86,1338.49 43.58,4399.59 158.06,5907.65 10.35,136.47 15.92,269.56 26.57,404.51 9.23,117 4.48,283.75 65.38,383.93 119.81,-70.08 79.98,-101.77 235.42,-136.8 -74.93,-1106.17 -154.65,-2209.23 -192.4,-3319.78 -8.05,-236.89 -88.89,-2991.19 -293.03,-3239.51z"/>
   <path class="fil3" d="M2535.71 20970.99c-4.59,-228.63 17.55,-2111.67 12.8,-2121.54l-9.38 -11.21 -13.11 615.96 -797.38 0.38c85.5,234.9 612.66,1338.76 807.07,1516.41z"/>
   <path class="fil1" d="M9813.06 13400.04l-359.57 -1174.19c-182.8,-5.65 -467.02,43.55 -597.31,-29.21l-8.9 290.85c278.1,79.59 270.88,251.91 269.06,595.47 111.9,52.15 243.58,80.58 360.58,131.25 129.22,55.97 228.01,137.71 336.14,185.83z"/>
   <path class="fil0" d="M9072.91 15664.02c-420.66,-151.1 -351.88,284.72 -324.56,760.12l362.65 -4.43c5.73,-227.18 26.84,-567.24 -38.09,-755.69z"/>
   <path class="fil1" d="M14717.01 10050.83l171.79 42.57c134.03,-190.56 304.42,-369.76 278.81,-729.01 -21.09,-295.93 -243.52,-537.85 -469.15,-534.32 105.7,171.39 235.84,276.88 234.87,590.33 -0.97,312 -145.81,466.82 -216.32,630.43z"/>
   <path class="fil0" d="M6489.68 20500.68c-7.57,-221.36 97.66,-866.99 -164.5,-841.66 -246.01,23.77 -143.7,616.57 -147.62,850.51l312.12 -8.85z"/>
   <path class="fil0" d="M2996.38 18277.16c-127.17,147.24 -100.61,138.39 -101.63,370.01 -0.74,167.85 3.94,331.46 -1.32,505.37l316.21 -3.57c-73.22,-565.28 139.97,-866.9 -213.26,-871.81z"/>
   <path class="fil0" d="M6387.16 18274.23c-313.69,16.33 -185.57,286.47 -211.43,875.25l304.48 -19.79c-4.09,-455.29 77.66,-664.04 -93.05,-855.46z"/>
   <path class="fil0" d="M3200.75 20427.21c4.06,-210.51 98.67,-811.06 -165,-793.22 -226.75,15.34 -141.32,585.42 -135.27,794.84l300.27 -1.62z"/>
   <path class="fil0" d="M6481.74 17868.81c-0.79,-209.15 71.99,-780.94 -158.56,-769 -215.66,11.17 -155.4,559.66 -138.56,763.95l297.12 5.05z"/>
   <path class="fil0" d="M9909.42 15694.05c-198.28,-66.18 -262.52,-43.94 -265.66,212.87 -1.94,159.58 -8.25,378.67 7.69,539.02l290.74 -3.76c-4.55,-244.01 19.27,-532.18 -32.77,-748.13z"/>
   <path class="fil0" d="M2945.48 17144.66c-60.28,180 -38.83,503.54 -43.55,722.64l305.12 -4.76c-0.03,-274.09 101.97,-902.05 -261.57,-717.88z"/>
   <path class="fil1" d="M13056.15 9206.91c-88.26,361.5 107.74,692.49 256,886.65l161.3 -21.36c22.77,-128.55 -263.61,-455.86 -163.05,-871.96 -115.01,8.97 -67.64,20.01 -146.96,35.34 -185.1,35.76 -61.24,42.28 -107.29,-28.67z"/>
   <path class="fil0" d="M10019.97 18462.37l252.51 3.13c23.49,-136.07 12.81,-283.86 11.35,-423.36 -1.6,-154.01 33.4,-351.75 -127.15,-353.73 -166.2,-2.04 -152.05,174.71 -150.66,324.35 1.37,147.98 -12.7,305.19 13.95,449.61z"/>
   <path class="fil0" d="M7629.29 20690.05l269.15 12.38c-14.34,-473 82.75,-772.49 -190.38,-779.49 -140.34,135.7 -71.86,400.55 -78.77,767.11z"/>
   <path class="fil0" d="M7217.5 18094.92l239.43 42.25c15.77,-157.44 5.88,-314.69 4.29,-469.84 -1.52,-148.24 22.41,-349.58 -107.84,-369.41 -159.75,-24.33 -143.77,168.14 -142.24,311.09 1.73,161.67 -5.39,325 6.36,485.91z"/>
   <path class="fil0" d="M8814.23 18347.76c-8.99,-340.42 70.53,-832.43 -128.54,-825.45 -151.31,5.31 -121.95,209.25 -118.7,346.69 3.32,141.34 -10.19,324.16 17.46,454.78l229.78 23.98z"/>
   <path class="fil0" d="M7675.77 18172.38l220.05 22.86c7.46,-164.34 0.45,-316.33 4.07,-470.75 3.4,-145.01 36.04,-331.41 -110.93,-340.1 -147.77,-8.73 -141.31,168.34 -139.38,310.7l1.93 402.72c10.65,57.82 4.3,38.02 24.26,74.57z"/>
   <path class="fil0" d="M8201.47 17470.67c-109.46,108.4 -77.66,171.58 -73.66,369.67 2.84,140.91 -8.04,287.03 13.91,428.68l225.03 10.42c4.1,-234.72 86.83,-783.16 -165.28,-808.77z"/>
   <path class="fil2" d="M7775.21 14888.18c33.43,-234.37 388.86,-1025.37 571.48,-1248.76 146.53,-179.26 278.6,-270.32 314.94,-322.36 -448.63,108.82 -938.03,894.68 -886.42,1571.12z"/>
   <path class="fil0" d="M8996.18 20038.94c-206.27,-44.51 -226.3,46.92 -222.75,250.65 2.52,143.96 -3.03,313.39 9.89,459.07l238.29 -2.9c6.05,-226.82 29.7,-526.51 -25.43,-706.82z"/>
   <path class="fil0" d="M9678.03 20101.08c-49.46,189.95 -26.52,454.6 -33.1,674l222.17 -12.75c0.1,-0.21 177.42,-747.52 -189.07,-661.25z"/>
   <path class="fil0" d="M9254.43 20084.72c-61.26,147.15 -29.29,476.39 -30.24,672.58l228.55 -11.76c9.2,-365.46 76.91,-734.24 -198.31,-660.82z"/>
   <path class="fil2" d="M13879.72 13227.12c-58.66,-47.3 -365.19,36.64 -568.81,-675.99 -61.93,-216.75 -1.92,-232.05 -102.73,-351.67 -27.98,324.6 88.77,846.38 347.23,1060.15 125.01,103.4 229.7,51.82 324.31,-32.49z"/>
   <path class="fil2" d="M12331.18 18350.36c218.25,-19.69 334.59,-215.07 401.14,-268.37 202.23,-161.98 400.31,-461.12 461.95,-715.43 -130.4,210.48 -700.86,841.62 -863.09,983.8z"/>
   <path class="fil2" d="M13365.44 17019.9c165.73,-69.27 138.67,-103.06 260.97,-170.57l226.82 260.34c75.55,88 12.54,40.01 121.54,80.98 -41.6,-130.29 -109.44,-232.03 -166.74,-321.06 -36.73,-57.08 -49.38,-79.37 -92.38,-137.93l-80.66 -93.6c-37.52,-35.02 -7.33,-12.62 -52.6,-42.82 -60.24,152.18 -158.29,235.34 -216.95,424.66z"/>
   <path class="fil2" d="M15032.65 18336.66c-106,-128.03 -104.19,-104.45 -225.35,-188.64 -102.75,-71.4 -144.67,-93.59 -226.17,-177.51 -79.14,-81.5 -139.8,-98.54 -212.28,-191.36l-147.23 -168.48c-23.2,-22.19 -34.95,-37.4 -54.96,-57.54 166.19,401.14 439.83,663.87 865.99,783.53z"/>
   <path class="fil1" d="M13101.12 9111.65l230.79 -3.75 153.85 -288.22c-225.28,53.3 -315.33,105.01 -384.64,291.97z"/>
   <path class="fil4" d="M13056.15 9206.91c46.05,70.95 -77.81,64.43 107.29,28.67 79.32,-15.33 31.95,-26.37 146.96,-35.34l21.51 -92.34 -230.79 3.75 -44.97 95.26z"/>
  </g>
 </g>
</svg>
