<?xml version="1.0" encoding="UTF-8"?>
<!DOCTYPE svg PUBLIC "-//W3C//DTD SVG 1.0//EN" "http://www.w3.org/TR/2001/REC-SVG-20010904/DTD/svg10.dtd">
<!-- Creator: CorelDRAW 2020 (64 Bit) -->
<svg xmlns="http://www.w3.org/2000/svg" xml:space="preserve" width="210mm" height="297mm" version="1.0" style="shape-rendering:geometricPrecision; text-rendering:geometricPrecision; image-rendering:optimizeQuality; fill-rule:evenodd; clip-rule:evenodd"
viewBox="0 0 21000 29700"
 xmlns:xlink="http://www.w3.org/1999/xlink"
 xmlns:xodm="http://www.corel.com/coreldraw/odm/2003">
 <defs>
  <style type="text/css">
   <![CDATA[
    .fil0 {fill:#543116}
    .fil3 {fill:#955A24}
    .fil4 {fill:#C58B3A}
    .fil1 {fill:#E6C179}
    .fil2 {fill:#F2E1C9}
   ]]>
  </style>
 </defs>
 <g id="Camada_x0020_1">
  <metadata id="CorelCorpID_0Corel-Layer"/>
  <g id="_2508236750512">
   <path class="fil0" d="M15371.33 16465.66c19.39,269.02 83.46,556.1 104.81,838.67 21.07,278.97 42.49,580.74 69.17,858.4 55.17,574.17 57.04,1204.28 87.92,1790.85 62.24,1182.07 109.36,2386.1 233.05,3559.44 -6.02,3.8 -15.1,1.89 -18.34,10.95l-122.41 76.47c-48.46,31.2 -87.49,53.61 -133.43,76.39 -168.63,-1322.34 -224.58,-3909.48 -251.07,-5396.99 -6.18,-347.24 -45.73,-1581.91 30.3,-1814.18zm-386.32 1339.15c-246.78,-48.45 -354.48,-165.24 -440.85,-219.09 -214.46,-133.7 -93.62,-76.37 -209.02,-212.89 -182.91,-216.4 -118.33,-131 -231.74,-379.51 4.35,4.44 9.75,10.72 12.55,13.82l151.69 156.31c59.47,59.8 37.95,67.1 145.67,157.82 83.49,70.31 35.96,51.37 94.28,112.37l477.42 371.17zm-2704.56 16.81c43.4,-101.78 16.91,-26.81 111.3,-138.93 225.27,-267.57 70.91,-49.5 340.59,-333.2l403.93 -505.41c-63.15,220.07 -192.8,382.23 -312.61,550.41l-137.47 164.81c-68.55,90.31 -160.9,139.28 -252.44,190.99 -69.66,39.35 -71.47,46.96 -153.3,71.33zm1037.62 -1331c29.35,-132.74 162.75,-327.56 222.46,-417.7 77.87,35.84 67.05,51.92 132.03,125.8l106 151.69c73.08,94.65 125.27,200.58 178.03,330.8 -104.63,-36.67 -246.43,-170.83 -312.88,-264.41l-74.05 -109.62c-36.33,34.39 -53.14,42.11 -75.37,61.77l-176.22 121.67zm-2205.82 8627.22c38.33,-600.05 157.29,-1401.11 212.24,-2074.63 55.19,-676.7 148.26,-1362.48 210.09,-2060.11 120.16,-1355.67 173.24,-2813.36 368.36,-4136.79 46.02,-312.13 78.03,-696 278.88,-861.18l351.45 -231.1c73.93,-53.23 90.63,-70.32 165.62,-112.72 48.32,-27.32 128.41,-79.27 160.9,-118.81 159.44,-194.04 -97.61,-659.17 254.65,-1440.74 40.42,-89.69 129.43,-287.34 197.7,-362.21 50.14,-54.99 131.76,-80.98 226.46,-62.59 196.8,38.22 300.61,308.09 359.24,482.64 184.64,549.71 170.98,322.8 192.97,911.7 22.23,595.32 109.59,441.13 321.48,548.15l533.66 303.28c100.48,59.08 287.1,117.68 347.41,207.9 -150.5,-27.87 -419.41,-123.66 -543.58,-196.51 -91.82,-53.87 -418.72,-214.49 -505.63,-233.49 -37.11,36.1 -9.7,9.76 -38.1,50.69 -2.22,3.21 -8.24,59.41 -20.88,31.85 -1.83,-3.99 -6.85,11.59 -10.79,17.02 -197.96,-209.71 -178.52,-112.13 -184.64,-500.55 -7.03,-446.06 -3.61,-701.4 -234.86,-1092.81 -84.62,-143.22 -117.54,-307.29 -231.73,-402.69 -115.71,20.05 -127.59,73.17 -169.3,139.78 -85.7,136.87 -262.44,539.79 -295.02,679.54 -76.66,328.9 77.98,920.94 -124.39,1170.02l-61.77 -115.74c-77.33,37.2 -132.53,90.16 -202.48,140.79 -3.97,2.87 -9.57,6.83 -13.63,9.63l-383.9 290.92c-53.72,67.54 -112.8,91.5 -131.97,216.38 -62.35,406.25 -98.18,825.29 -133.81,1239.48 -148.56,1727.28 -224.72,3379.16 -377.92,5100.49 -21.43,240.8 -226.38,2261.41 -278.52,2481.08l-238.19 -18.67zm2470.1 -12384.23c-57.78,-15.99 -125.45,-107.07 -180.35,-172.21 -178.36,-211.61 -258.4,-662.31 -235.57,-955.63 19.07,25.33 18.88,19.35 37.95,66.08 28.65,70.23 14.8,318.72 179.47,608.47 153.31,269.77 155.6,336.12 436.49,357.23 5.45,120.31 -130.44,125.8 -237.99,96.06zm1101.19 -3336.33c127.47,-328.17 430.07,-672.48 9.58,-1179.03l-44.71 -55.4c777.96,194.43 488.43,1025.45 175.62,1285.47l-140.49 -51.04zm-1213.97 6.58c-278.15,23.3 -158.97,80.98 -324.15,-166.1 -168.03,-251.37 -210.23,-611.79 -48.5,-849.58 97.71,-143.66 134.47,-184.26 363.43,-222.59 -29.65,56.9 -9.23,20.75 -33.69,58.64l-65.04 80.93c-105.28,121.98 -130.46,321.19 -115.54,484.1 20.6,224.91 120.47,433.56 223.49,614.6zm-835.39 -995.06c-86.46,120.53 -66.57,364.79 -64.4,522.34 127.02,241.89 13.66,267.48 274.76,515.18 132.56,125.76 20.57,121.04 85.26,308.85l149.94 230.01c-171.02,95.14 -272.47,636.32 -334.97,702.57 8.34,114.26 -25.13,195.81 -37.53,311.31 -58.37,428.24 -188.28,1754.83 -470.22,2042.34l-19.03 64.49c-59.31,226.63 -703.16,1215.63 -952.7,1939.29 -57.99,168.17 -163.39,605.41 -231,725.3 -97.47,469.02 -207.14,930.54 -294.05,1428.74 -88.65,508.1 -130.21,977.35 -224.68,1493.33 -15.63,308.92 -382.75,2175.55 -504.41,2391.11 -179.16,31.06 -1115.78,34.31 -1514.61,215.25l-43.58 25.14c98.92,1.51 573.43,268.85 686.16,336.47 118.63,71.16 221.87,139.14 319.55,193.3 109.94,60.97 200.21,153.69 331.39,188.3l-336.89 1157.54 -130.06 447.44c-7.82,101.11 -371.1,1364.49 -407.72,1414.96 -285.45,8.12 -1581.64,-410.89 -1896.84,-532.16 -250.62,-96.42 -609.95,-262.31 -829.24,-379.54 -114.45,-61.18 -260.98,-143.24 -391.78,-212.98 -138.71,-73.96 -255.72,-170.38 -386.99,-242.35l-269.72 -171.92c-37.99,-26.52 -50.03,-44.63 -90.81,-71.51l-258.08 -182.96c-48.42,-32.94 -48.65,-42.13 -91.26,-73.34 -36.9,-27.04 -46.53,-23.4 -88.84,-50.77 -61.52,-39.8 -26.92,-24.22 -85.81,-76.31l-112.85 -96.48c-32.49,-27.06 -17.65,-10.72 -52.55,-41.9 -17.99,-16.08 -35.58,-39.75 -66.81,-71.68 -33.66,-34.42 -55.4,-46.52 -91.84,-71.61 -42.05,-28.97 -57.42,-39.28 -93.85,-69.44l-901.5 -936.04c-89.55,-127.06 -297.07,-357.65 -328,-467.68 -71.18,-54.15 -59.1,-45.38 -118.82,-130.54 -24.88,-35.47 -38.79,-50.48 -59.23,-79.49 -58.94,-83.68 -14.42,5.61 -48.52,-83.44 -24.16,-31.04 -99.18,-130.85 -151.47,-208.64 -45.7,-68.01 -108.21,-160.22 -138.69,-230.94l-439.32 -793.35c-140.68,-285.15 -240.24,-567.14 -368.32,-847.93l919.11 7.66c-5.82,-111.93 -5.41,-229.55 -2.93,-341.21l-4.68 -229.77c-17.36,-68.28 5.07,-16.3 -26.74,-54.47 -127.56,41.38 -363.79,173.67 -481.04,231.88l-459.34 238.94c-136.23,-211.9 -447.53,-1384.13 -497.81,-1707.23 -331.79,-1262.96 -209.61,-3340.08 139.13,-4629.34 310.42,-1147.58 580.87,-1741.37 1125.24,-2712.3 126.7,-225.97 527.85,-836.83 703.32,-1040.86 142.23,-165.39 114.61,-164.85 301.77,-348.74 83.31,-81.84 12.18,-74.35 137.08,-166.35 59.06,-43.5 34.99,-17.88 85.2,-76.51 226.87,-264.98 435.61,-420.55 552.12,-564.71 68.23,-84.42 85.42,-55.18 172.66,-153.79 93.75,-105.99 46.82,-28.15 175.45,-149.3 366.86,-345.54 1466.69,-1021.81 1830.22,-1193.29 299.88,-141.45 585.13,-261.31 896.55,-383.86 625.11,-245.98 1366.91,-423.72 2017.03,-517.39 2307.6,-332.46 4285.28,132.24 6228.25,1241.93 195.43,111.62 1017.55,657.39 1218.71,852.09l172.59 152.62c36.39,41.43 20.85,31.85 68.88,69.59 302.65,237.79 103.96,90.17 248.63,240.64l242.79 246.17c77.76,71.22 89.82,43.68 165.07,136.07 55.03,67.58 86.17,127.78 147.41,179.65 144.43,122.35 63.43,86.29 146.97,178.57l808.37 1098.48c71.69,128.1 151.78,261.66 235.05,393.32 342.5,541.5 767.11,1604.36 940.27,2245.81 312.27,1156.73 231.2,1077.13 372.42,2142.77 31.92,728.99 10.58,1295.47 -55.27,2013.56 -12.6,414.68 -154.79,945.27 -249.38,1360.02 -202.66,888.57 -718.87,2028.16 -1200.02,2823.09 -75.48,124.69 -220.48,385.1 -312.98,485.9 -230.57,-420.89 -538.47,-2153.26 -667.31,-2711.07 -213,-922.19 -346.99,-1871.36 -561.74,-2778.37 -170.35,-581.23 -268.01,-1037.76 -527.11,-1553.24l-234.44 -464.57c-520.73,-1041.48 -609.34,-1378.17 -884.65,-2533.58 -39.51,-165.8 -86.22,-394.84 -147.06,-550.8 -67.5,-173.03 -169.32,-300.84 -235.51,-440.35 78.46,-108.85 207.28,-179.34 144.79,-450.62 4.84,-4.1 11.97,-8.48 15.56,-10.93 3.56,-2.42 11.14,-7.78 15.5,-10.72l30.58 -20.15c89.42,-61.19 75.65,-64.06 143.94,-158.62 192.61,-266.67 248.32,-753.11 30.57,-1053.72 -236.84,-326.98 -499.53,-444.65 -973.12,-375.69 3.9,-130.98 -32.6,-211.36 -117.95,-301.65 -137.62,-145.56 -80.74,-59.77 -45.99,-257.07 53.25,-302.31 -287.49,-374.32 -420.4,-236.67 -85.83,88.89 -72.92,279.55 3.95,378.03 -81.13,139.18 -192.55,188.67 -209.84,429.79 -268.94,-58.92 -625.67,2.83 -803.4,160.76 -97.84,86.94 -194.86,196.11 -236.54,339.34zm-2821.83 -3977.39c-717.4,18.07 -1538.94,227.27 -2239.7,408.05 -867.26,223.73 -1946.62,772.55 -2680.53,1250.83 -194.93,127.03 -596.52,411.85 -763.03,562.62l-527.05 450.69c-137.04,162.14 -286.87,260.43 -484.54,492.35l-764.35 886.18c-57.35,75.02 -86.88,121.22 -135.67,190.73 -53.38,76.06 -86.14,110.09 -137.73,186.81 -483.49,719.05 -941.13,1554.86 -1225.93,2404.1 -1135.53,3385.98 -860.25,6491.73 909.33,9542.35 213.18,367.5 318.16,480.42 529.67,795.66 95.14,141.8 186.9,241.62 279.03,372.72 48.41,68.88 99.31,111.47 149.59,174.74l148.36 177.27c32.38,38.65 34.38,56.24 71.02,94.05 176.86,182.49 187.14,245.46 315.75,334.48 44.31,30.67 45.26,33 86.74,75.98 54.75,56.73 127.94,117.92 172.89,176.4 129.06,167.88 357.04,337.37 541.45,504.68l326.14 256.07c1892.01,1420.44 4338.8,2263.24 6767.45,2063.52 1602.04,-131.74 2668.37,-490.4 4062.85,-1184.24 428.2,-213.06 1287.33,-774.86 1669.35,-1123.66l599.98 -539.51c120.89,-110.69 217.26,-203.98 321.01,-330.79 103.74,-126.81 96.14,-74.89 165.12,-158.49l866.55 -1112.13c42.25,-58.59 89.76,-127.75 131.56,-193.81 1351.82,-2136.53 1889.03,-4116.78 1798.48,-6728.7 -26.51,-764.64 -177.01,-1526.42 -358.38,-2273.96 -231.42,-953.78 -669.28,-1955.23 -1157.61,-2772.84 -174,-291.32 -339.95,-544.49 -526.38,-799.33l-501.89 -638.98c-42.58,-45.76 -36.84,-24.44 -80.84,-80.02l-893.3 -920.91c-1058.77,-849.5 -1404.86,-1160.08 -2939.6,-1830.25 -856.66,-374.09 -2236.52,-680.68 -3207.04,-717.04 -465.12,-17.43 -838.12,-6.98 -1288.75,4.38z"/>
   <path class="fil1" d="M1000.82 17084.86l172.8 -61.82c65.51,-10.6 141.19,-13.9 208.41,-13 396.63,5.33 627.27,230.59 742.46,617.67l308.11 -42.49c70.06,166.67 -20.17,516.02 42.76,718.82 -19.65,-324.06 -12.85,-777.54 -12.05,-1140.52 0.74,-338.11 -23.98,-844.38 13.37,-1163.23 -99.2,1.6 -266.95,10.79 -336.6,-61.75 64.37,-55.88 82.3,-45.14 152.22,-98.03l1255.86 -883.77c27.13,-19.19 50.98,-39.87 79.82,-59.62l236.77 -159.39c63.95,-39.29 99.88,-72.26 159.74,-118.5 159.22,-122.99 496.33,-358.54 675.91,-409.51 3582.7,1454.49 6583.86,-1908.06 2054.32,-4846.44 26.65,-145.87 41.12,-264.3 78.05,-402.52 33.67,-126.05 112.14,-263.43 130.98,-366.68 -45.76,-24.49 -87.69,-61.2 -128.83,-92.21l-1370.74 -1095.91c-112.03,-86.41 -385.99,-349.24 -474.06,-399.18l831.53 438.34c87.51,54.27 176.09,91.29 272.76,146.03l1102.49 589.54c100.52,-66.14 158.35,-177.19 246.8,-260.13 81.46,-76.39 159.04,-151.99 280.16,-209.02l-857.23 -1734.83 176.67 175.61c211.06,232.14 986.18,1148.41 1130.45,1264.28 182.58,-36.76 386.57,-142.56 603.19,-176.21l210.85 -1778.8c36.71,89.2 92.66,705.45 111.21,863.82 100.71,859.65 43.01,874.29 291.42,903.9 62.26,7.41 126.8,11.22 184.64,22.94 118.88,24.08 224.71,81.02 323.87,96.24l1084.64 -1863.13c42.9,-75.89 22.8,-65.32 75.6,-116.74 -31.02,160.85 -142.44,389.45 -196.64,553.02l-380.77 1108.66c-43.41,112.7 -164.58,407.13 -182.12,522.86 76.08,61.41 166.84,111.18 239.77,173.6 90.42,77.39 137.8,124.06 216,193.68l2330.45 -1599.62c-40.11,114.44 -150.67,167.48 -249.08,270.33 -357.34,373.45 -886.45,840.85 -1275.91,1237.05 -143.98,146.48 -371.52,310.31 -504.27,497.18 65.6,180.92 193.8,348.4 233.67,591.09 347.6,-52.63 1025.54,-88.89 1260.32,-130.29 5.97,-82.08 1.04,-238.65 40.1,-327.57 22.36,-50.9 3.47,-36.37 43.49,-49.81 41.68,-143.23 138.7,-252.4 236.54,-339.34 177.73,-157.93 534.46,-219.68 803.4,-160.76 17.29,-241.12 128.71,-290.61 209.84,-429.79 -76.87,-98.48 -89.78,-289.14 -3.95,-378.03 132.91,-137.65 473.65,-65.64 420.4,236.67 -34.75,197.3 -91.63,111.51 45.99,257.07 85.35,90.29 121.85,170.67 117.95,301.65 473.59,-68.96 736.28,48.71 973.12,375.69 217.75,300.61 162.04,787.05 -30.57,1053.72 -68.29,94.56 -54.52,97.43 -143.94,158.62l-30.58 20.15c-4.36,2.94 -11.94,8.3 -15.5,10.72 -3.59,2.45 -10.72,6.83 -15.56,10.93 62.49,271.28 -66.33,341.77 -144.79,450.62 66.19,139.51 168.01,267.32 235.51,440.35 60.84,155.96 107.55,385 147.06,550.8 275.31,1155.41 363.92,1492.1 884.65,2533.58l234.44 464.57 99.93 -111.79c24.2,-18.09 84.62,-49.34 118.87,-63.84 155.15,-65.68 158.65,-23.18 270.05,-44.85 60.36,-11.75 8.24,-252.38 201,-509.89 16.96,-22.66 12.87,-19.25 29.84,-39.3 309.82,-365.91 806.31,-335.53 1200.76,-79.8 89.73,58.18 49.95,34.52 120.29,110.81 145.36,157.64 273.75,295.4 286.82,598.93 249.56,-95.13 449.79,-267.33 836.87,68.44 175.84,152.52 163.09,250.61 227.18,428.34l182.2 3.06c-141.22,-1065.64 -60.15,-986.04 -372.42,-2142.77 -173.16,-641.45 -597.77,-1704.31 -940.27,-2245.81 -83.27,-131.66 -163.36,-265.22 -235.05,-393.32l-808.37 -1098.48c-83.54,-92.28 -2.54,-56.22 -146.97,-178.57 -61.24,-51.87 -92.38,-112.07 -147.41,-179.65 -75.25,-92.39 -87.31,-64.85 -165.07,-136.07l-242.79 -246.17c-144.67,-150.47 54.02,-2.85 -248.63,-240.64 -48.03,-37.74 -32.49,-28.16 -68.88,-69.59l-172.59 -152.62c-201.16,-194.7 -1023.28,-740.47 -1218.71,-852.09 -1942.97,-1109.69 -3920.65,-1574.39 -6228.25,-1241.93 -650.12,93.67 -1391.92,271.41 -2017.03,517.39 -311.42,122.55 -596.67,242.41 -896.55,383.86 -363.53,171.48 -1463.36,847.75 -1830.22,1193.29 -128.63,121.15 -81.7,43.31 -175.45,149.3 -87.24,98.61 -104.43,69.37 -172.66,153.79 -116.51,144.16 -325.25,299.73 -552.12,564.71 -50.21,58.63 -26.14,33.01 -85.2,76.51 -124.9,92 -53.77,84.51 -137.08,166.35 -187.16,183.89 -159.54,183.35 -301.77,348.74 -175.47,204.03 -576.62,814.89 -703.32,1040.86 -544.37,970.93 -814.82,1564.72 -1125.24,2712.3 -348.74,1289.26 -470.92,3366.38 -139.13,4629.34z"/>
   <path class="fil2" d="M6844.65 10505.94l-2168.61 2132.33 2432.48 -1691.09c158.92,200.85 358.09,414.02 553.96,564.58l-1124.4 2642.35 753.33 -1221.29c52.53,-86.68 673.5,-1106.14 789.31,-1220.49 91.68,20.32 191.9,60.47 287.8,91.7 63.67,20.74 278.08,95 293.27,58.13 2.3,-111.18 -17.22,-211.5 34.47,-313.3 4.85,-9.55 23.49,-40.36 30.49,-49.77 4.88,-6.56 9.57,-11.54 14.4,-17.55l33.36 -36.13c11.01,127.96 54.11,136.14 68.57,231.38 8.89,58.55 -56.87,213.52 -13.35,217.27 214,32.63 411.34,27.18 626.79,9.04 409.7,2030.74 498.23,1711.61 428.57,-121.03 216.36,-57.24 376.11,-200.26 544.71,-276.83 5.09,3.38 12.85,2.44 15.27,10.15 2.39,7.66 11.9,7.81 15.19,10.01l310.13 273.37c27.95,26.36 14.43,16.4 45.51,47.71l402.53 342.42c52.4,47.52 45.28,72.59 109.18,122.79l450.2 387.26c96.82,69.22 415.18,330.18 440.18,406.94l19.03 -64.49 -1216.95 -1586.12c-21.3,-28.45 -30.95,-48.4 -44.59,-70.86 -67.45,-111.05 -101.07,-86.69 -179.81,-253.28 219.42,-167.72 305.96,-478.78 424.91,-632.63 127.94,30.44 257.43,87.84 377.02,123.56l749.61 228.66c124.2,36.34 302.26,49.53 360.03,148.33 12.4,-115.5 45.87,-197.05 37.53,-311.31 -4.57,-39.03 2.44,-6.52 -35.67,27.78 -121.86,-43.45 -1312.25,-613.69 -1372.33,-669.04 6.21,-220.84 41.82,-386.78 30.83,-651.23 206.58,-118.27 932.92,-227.06 1096.32,-317.57 91.75,-50.83 57.96,-30.91 50.25,-157.64 5.73,5.21 28.55,19.65 31.52,19.62 1.65,-0.03 11.22,-1.18 12.84,-1.3 1.68,-0.13 7.03,-5.8 11.25,-7.23 -2.17,-157.55 -22.06,-401.81 64.4,-522.34 -40.02,13.44 -21.13,-1.09 -43.49,49.81 -39.06,88.92 -34.13,245.49 -40.1,327.57 -234.78,41.4 -912.72,77.66 -1260.32,130.29 -39.87,-242.69 -168.07,-410.17 -233.67,-591.09 132.75,-186.87 360.29,-350.7 504.27,-497.18 389.46,-396.2 918.57,-863.6 1275.91,-1237.05 98.41,-102.85 208.97,-155.89 249.08,-270.33l-2330.45 1599.62c-78.2,-69.62 -125.58,-116.29 -216,-193.68 -72.93,-62.42 -163.69,-112.19 -239.77,-173.6 17.54,-115.73 138.71,-410.16 182.12,-522.86l380.77 -1108.66c54.2,-163.57 165.62,-392.17 196.64,-553.02 -52.8,51.42 -32.7,40.85 -75.6,116.74l-1084.64 1863.13c-99.16,-15.22 -204.99,-72.16 -323.87,-96.24 -57.84,-11.72 -122.38,-15.53 -184.64,-22.94 -248.41,-29.61 -190.71,-44.25 -291.42,-903.9 -18.55,-158.37 -74.5,-774.62 -111.21,-863.82l-210.85 1778.8c-216.62,33.65 -420.61,139.45 -603.19,176.21 -144.27,-115.87 -919.39,-1032.14 -1130.45,-1264.28l-176.67 -175.61 857.23 1734.83c-121.12,57.03 -198.7,132.63 -280.16,209.02 -88.45,82.94 -146.28,193.99 -246.8,260.13l-1102.49 -589.54c-96.67,-54.74 -185.25,-91.76 -272.76,-146.03l-831.53 -438.34c88.07,49.94 362.03,312.77 474.06,399.18l1370.74 1095.91c41.14,31.01 83.07,67.72 128.83,92.21 -18.84,103.25 -97.31,240.63 -130.98,366.68 -36.93,138.22 -51.4,256.65 -78.05,402.52 -207.72,27.56 -2877.3,264.78 -3017.81,224.47 780.95,51.2 1562.57,118.28 2343.58,175.19 222.89,28.23 447.73,31.16 668.13,60.17 -14.7,136.64 55.04,538.16 96.03,682.83z"/>
   <path class="fil3" d="M9623.78 20219.47c-26.38,-150.16 -57.07,-675.18 108.35,-665.8 158.21,8.97 91.6,500.67 100.92,663.45l-209.27 2.35zm-415.27 -672.87c157.44,-31.08 197.23,37.5 199.01,199.33 1.69,153.92 -0.97,310.16 -0.97,464.51l-211.11 0.01 13.07 -663.85zm-473.42 658.94c30.3,-157.19 -70.96,-760.8 129.4,-716.92 40.4,8.85 46.51,23.8 68.61,52.71 86.61,113.32 8.35,458.71 48.43,664.25l-246.44 -0.04zm-203.81 -2437.31c2,-154.11 5.43,-311.3 2.7,-465.21 -2.69,-151.29 -25.22,-286.39 128.19,-302.43 113.19,130.56 94.42,122.97 95.2,348.91 0.51,146.51 11.77,296.09 -14.2,441.41 -37.33,-1.66 -67.56,-2.06 -105.05,-5.45l-106.84 -17.23zm-437.48 -64.2c50.73,-232.27 -28.14,-497.33 45.23,-751.38l112.53 -0.22c82.65,120.89 78.44,705.63 44.22,797.78l-201.98 -46.18zm-473.76 -98.61c15.96,-155.9 4.77,-305.96 4.96,-465.78 0.12,-98.65 -7.45,-309.98 116.37,-282.29 138.47,30.96 92.79,668.91 86.9,802.1l-208.23 -54.03zm-413.17 -825.45c190.59,-48.61 177.18,133.81 177.06,289.45 -0.12,142.96 -11.43,381.51 12.64,507.51l-217.23 -41.49 27.53 -755.47zm-1500.66 3637.27c-386.93,-99.44 -1746.38,-158.29 -2137.6,-55.79 -32.14,-36.62 -46.85,67.56 -27.27,-49.7 -55.98,66.64 -41.39,51.21 -157.6,64.89l-1021.85 203.7c30.48,70.72 92.99,162.93 138.69,230.94 52.29,77.79 127.31,177.6 151.47,208.64 170.63,17.8 331.23,-0.58 521.17,0.22 172.16,0.73 350.12,12.09 514.3,17.56 369.21,12.31 649.05,48.71 1007.79,119.49 615.49,121.44 1563.01,490.68 2059.06,775.35l1280.7 697.85c67.76,29.19 116.8,60.88 185.74,93.38 201.27,94.9 603.69,279.35 803.93,334.35 79.65,21.87 150.48,44.87 216.67,63.09 38.65,10.64 74.29,16.42 113.27,26.29 124.29,31.5 69.61,-5 98.49,52.16l336.89 -1157.54c-131.18,-34.61 -221.45,-127.33 -331.39,-188.3 -97.68,-54.16 -200.92,-122.14 -319.55,-193.3 -112.73,-67.62 -587.24,-334.96 -686.16,-336.47l43.58 -25.14c398.83,-180.94 1335.45,-184.19 1514.61,-215.25 121.66,-215.56 488.78,-2082.19 504.41,-2391.11 26.14,142.87 3.44,32.88 -62.38,67.52 -0.57,35.44 -1875.89,-147.13 -2062.2,-132.89 -32.34,83.65 33.39,49.26 -85.29,71.27 85.12,-39.58 55.28,21.64 58.49,112.54l-7.66 1097.96c0.7,154.78 -9.78,1275.18 23.33,1285.06 -35.36,26.01 66.59,105.56 -169.68,-17.49 -218.85,-113.98 -706.4,-292.19 -959.96,-390.81l-121.76 -46.28 -24.46 -2102.73c13.91,-110.01 108,-130.31 174.14,-182.42 48.1,-37.9 37.45,-47.65 94.77,-91.89l65.92 -49.84c3.32,-3.12 7.57,-8.58 10.82,-11.77l61.44 -53.52c200.82,-134.81 228.94,-244.08 429.6,-215.51 228.38,32.53 468.63,51.45 682.26,74.87 221.4,24.26 452.1,82.65 676.92,61.6 24.78,-48.81 12.96,-155.47 13.7,-203.01 3.67,-234.62 9.03,-869.57 -20.83,-1099.3l-2.48 -22.46c1.09,-53.27 40.05,-102.84 6.58,-350.7 257.62,-18.05 675.54,-39.88 926,-22.39 -330.05,-25.32 -674.08,44.51 -992.16,-19.17 -542.15,-108.54 -1088.28,-234.28 -1632.2,-323.99 -124.35,-20.51 -737.89,-90 -784.08,-171.98 3.85,109.24 0.64,204.17 11.73,307.63l-13.84 225.12c-1.51,203.47 2.51,402.28 1.32,605.77l14.03 866.51c-0.01,2.41 -0.58,8.43 -0.8,10.84 -27.13,293.76 -24.97,2434.31 -3.87,2691.17 -301.27,-96.65 -787.56,-193.93 -1116.75,-245.02z"/>
   <path class="fil4" d="M6129.75 19974.04c12.45,-162.98 -1.75,-341.29 -0.34,-508.21 1.37,-161.71 -19.1,-358.51 159.31,-349.11 254.59,13.42 98.74,526.03 148.92,868.07l-307.89 -10.75zm-3283.92 -85.89c-14.45,-63.59 -27.24,-646.6 -2.78,-705.16 15.71,-37.6 269.86,-300.05 277.17,259.37 1.88,143.71 4.84,312.45 -4.29,452.85l-270.1 -7.06zm3311.66 -2135.41c380.52,-81.41 222.94,253.12 256.85,847.84l-300.02 8.09c27.41,-341.1 -31.05,-511.59 43.17,-855.93zm-3332.25 852.15c13.58,-207.4 -97.35,-910.85 155.21,-874.79 157.8,22.52 137.53,206.01 140.03,363.48 2.62,165.32 3.69,339.41 -6.08,505.4l-289.16 5.91zm3287.51 -1277.63c2.74,-192.77 -90.97,-813.67 174.99,-777.42 199.14,27.15 112.52,555.81 135.48,771.79l-310.47 5.63zm-3290.83 -16.04c18.09,-171.81 -68.81,-780.29 161.59,-762.31 205.31,16.02 141.17,591.11 144.59,771.56l-306.18 -9.25zm-345.24 -1310.93c-37.35,318.85 -12.63,825.12 -13.37,1163.23 -0.8,362.98 -7.6,816.46 12.05,1140.52l-36.35 17.23c31.81,38.17 9.38,-13.81 26.74,54.47l4.68 229.77c-2.48,111.66 -2.89,229.28 2.93,341.21l-919.11 -7.66c128.08,280.79 227.64,562.78 368.32,847.93l439.32 793.35 1021.85 -203.7c116.21,-13.68 101.62,1.75 157.6,-64.89 -49.13,-344.61 -22.61,-2366.01 -27.59,-2892.39 -4.66,-492.22 -31.76,-854.67 210.2,-1240.76 81.78,-130.5 243.56,-295.53 373.51,-370.52 358.12,-206.68 836.4,-199.28 1120.21,33.03l230.62 233.73c2.88,4.07 6.48,9.97 9.34,14.03l91.01 140.55c244.27,482.32 174.74,696.14 177.79,1282.97l-4.93 2186.04c-6.25,227.32 -23.9,495.32 -15.29,718.81 329.19,51.09 815.48,148.37 1116.75,245.02 -21.1,-256.86 -23.26,-2397.41 3.87,-2691.17 0.22,-2.41 0.79,-8.43 0.8,-10.84l-14.03 -866.51c1.19,-203.49 -2.83,-402.3 -1.32,-605.77l13.84 -225.12c-11.09,-103.46 -7.88,-198.39 -11.73,-307.63l-2239.92 -1443.96 -508.01 381.58c-103.66,61.01 -186.39,134.81 -274.56,190.33l-790.78 558.73c-168.56,127.88 -348.85,236.13 -524.44,358.39z"/>
   <path class="fil0" d="M4700.4 14209.72c-179.58,50.97 -516.69,286.52 -675.91,409.51 -59.86,46.24 -95.79,79.21 -159.74,118.5l-236.77 159.39c-28.84,19.75 -52.69,40.43 -79.82,59.62l-1255.86 883.77c-69.92,52.89 -87.85,42.15 -152.22,98.03 69.65,72.54 237.4,63.35 336.6,61.75 175.59,-122.26 355.88,-230.51 524.44,-358.39l790.78 -558.73c88.17,-55.52 170.9,-129.32 274.56,-190.33l508.01 -381.58 2239.92 1443.96c46.19,81.98 659.73,151.47 784.08,171.98 543.92,89.71 1090.05,215.45 1632.2,323.99 318.08,63.68 662.11,-6.15 992.16,19.17l496.63 -0.77c12.2,-137.77 226.39,-568.78 294.9,-694.25l-235.58 0.11 -338.55 54.92c21.71,-141.79 20.07,-308.78 7.48,-458.02 -13.04,-154.58 -46.41,-270.55 -222.95,-223.08 -123.22,94.24 -88.47,584.66 -61.11,771.68 -233.12,3.5 -671.25,298.42 -873.51,432.91 -50.19,-17.45 -190.29,-86.95 -239.14,-113.73l-714.45 -359.32c-45.07,-275.95 55.94,-504.76 -78.5,-749.01 -393.84,-66.29 -240.45,294.57 -275.96,584.31 -220.58,-94.82 -202.41,-159.16 -333.58,-159.91l-1.84 -398.25 -182.13 -17.6c-90.38,106.88 -49.61,112.41 -81.58,228.73 -72.04,-25.96 -240.59,-138.01 -333.11,-197.35 -58.42,-37.47 -110.96,-67.06 -173.86,-104.95l-173.66 -99.42c-66.99,-57.58 -239.49,-150.14 -318.55,-199.99 -266.46,-168.03 -704.74,-338.78 -992.3,-557.72 -85.5,-108.39 -577.09,-104.68 -691.08,0.07z"/>
   <path class="fil1" d="M17085.3 15519.26c214.75,907.01 348.74,1856.18 561.74,2778.37 128.84,557.81 436.74,2290.18 667.31,2711.07 92.5,-100.8 237.5,-361.21 312.98,-485.9 481.15,-794.93 997.36,-1934.52 1200.02,-2823.09 94.59,-414.75 236.78,-945.34 249.38,-1360.02 -42.79,-205.32 198.31,-407.33 -486.21,-502.31 -276.28,-38.34 -374.21,25.56 -610.31,79.91 -56.6,-260.85 -353.6,-509.89 -655.61,-578.34 -413.83,-93.8 -647.77,70.64 -894.32,283.6 -108.97,-85.88 -184.95,-130.65 -344.98,-103.29z"/>
   <path class="fil0" d="M3541.34 20311.75c-19.58,117.26 -4.87,13.08 27.27,49.7 391.22,-102.5 1750.67,-43.65 2137.6,55.79 -8.61,-223.49 9.04,-491.49 15.29,-718.81l4.93 -2186.04c-3.05,-586.83 66.48,-800.65 -177.79,-1282.97l-91.01 -140.55c-2.86,-4.06 -6.46,-9.96 -9.34,-14.03l-230.62 -233.73c-283.81,-232.31 -762.09,-239.71 -1120.21,-33.03 -129.95,74.99 -291.73,240.02 -373.51,370.52 -241.96,386.09 -214.86,748.54 -210.2,1240.76 4.98,526.38 -21.54,2547.78 27.59,2892.39z"/>
   <path class="fil3" d="M2878.62 21313.39c30.93,110.03 238.45,340.62 328,467.68l901.5 936.04c36.43,30.16 51.8,40.47 93.85,69.44 36.44,25.09 58.18,37.19 91.84,71.61 31.23,31.93 48.82,55.6 66.81,71.68 34.9,31.18 20.06,14.84 52.55,41.9l112.85 96.48c58.89,52.09 24.29,36.51 85.81,76.31 42.31,27.37 51.94,23.73 88.84,50.77 42.61,31.21 42.84,40.4 91.26,73.34l258.08 182.96c40.78,26.88 52.82,44.99 90.81,71.51l269.72 171.92c131.27,71.97 248.28,168.39 386.99,242.35 130.8,69.74 277.33,151.8 391.78,212.98 219.29,117.23 578.62,283.12 829.24,379.54 315.2,121.27 1611.39,540.28 1896.84,532.16 36.62,-50.47 399.9,-1313.85 407.72,-1414.96 -636.76,-104.35 -1158.67,-250.23 -1724.24,-494.62 -338.86,-146.44 -1111.14,-516.88 -1474.64,-729.72l-743.87 -374.12c-141.91,-58.89 -244.05,-113.72 -388.53,-171.46 -677.15,-270.6 -1393.48,-511.28 -2113.21,-563.79z"/>
   <path class="fil2" d="M16558.19 13966.02c259.1,515.48 356.76,972.01 527.11,1553.24 160.03,-27.36 236.01,17.41 344.98,103.29 246.55,-212.96 480.49,-377.4 894.32,-283.6 302.01,68.45 599.01,317.49 655.61,578.34 236.1,-54.35 334.03,-118.25 610.31,-79.91 684.52,94.98 443.42,296.99 486.21,502.31 65.85,-718.09 87.19,-1284.57 55.27,-2013.56l-182.2 -3.06c-64.09,-177.73 -51.34,-275.82 -227.18,-428.34 -387.08,-335.77 -587.31,-163.57 -836.87,-68.44 -13.07,-303.53 -141.46,-441.29 -286.82,-598.93 -70.34,-76.29 -30.56,-52.63 -120.29,-110.81 -394.45,-255.73 -890.94,-286.11 -1200.76,79.8 -16.97,20.05 -12.88,16.64 -29.84,39.3 -192.76,257.51 -140.64,498.14 -201,509.89 -111.4,21.67 -114.9,-20.83 -270.05,44.85 -34.25,14.5 -94.67,45.75 -118.87,63.84l-99.93 111.79z"/>
   <path class="fil1" d="M9937.62 13257.93l447.27 252.35c224.12,359.83 490.88,890.87 405.06,1328.11 -11.72,273.34 42.3,685.25 -11.17,937.06l235.58 -0.11 19.93 -4.86c67.61,-119.89 173.01,-557.13 231,-725.3 249.54,-723.66 893.39,-1712.66 952.7,-1939.29 -25,-76.76 -343.36,-337.72 -440.18,-406.94l-450.2 -387.26c-63.9,-50.2 -56.78,-75.27 -109.18,-122.79l-402.53 -342.42c-31.08,-31.31 -17.56,-21.35 -45.51,-47.71l-310.13 -273.37c-3.29,-2.2 -12.8,-2.35 -15.19,-10.01 -2.42,-7.71 -10.18,-6.77 -15.27,-10.15 -168.6,76.57 -328.35,219.59 -544.71,276.83 13.68,637.25 -114.46,1170.75 52.53,1475.86z"/>
   <path class="fil4" d="M2878.62 21313.39c719.73,52.51 1436.06,293.19 2113.21,563.79 144.48,57.74 246.62,112.57 388.53,171.46l743.87 374.12c363.5,212.84 1135.78,583.28 1474.64,729.72 565.57,244.39 1087.48,390.27 1724.24,494.62l130.06 -447.44c-28.88,-57.16 25.8,-20.66 -98.49,-52.16 -38.98,-9.87 -74.62,-15.65 -113.27,-26.29 -66.19,-18.22 -137.02,-41.22 -216.67,-63.09 -200.24,-55 -602.66,-239.45 -803.93,-334.35 -68.94,-32.5 -117.98,-64.19 -185.74,-93.38l-1280.7 -697.85c-496.05,-284.67 -1443.57,-653.91 -2059.06,-775.35 -358.74,-70.78 -638.58,-107.18 -1007.79,-119.49 -164.18,-5.47 -342.14,-16.83 -514.3,-17.56 -189.94,-0.8 -350.54,17.58 -521.17,-0.22 34.1,89.05 -10.42,-0.24 48.52,83.44 20.44,29.01 34.35,44.02 59.23,79.49 59.72,85.16 47.64,76.39 118.82,130.54z"/>
   <path class="fil4" d="M9904.34 15907.57c-68.52,20.72 -186.47,7.6 -257.57,-12.22 -5.77,-1.61 -13.8,-4.98 -18.34,-6.38 -4.42,-1.36 -12.02,-3.95 -17.71,-6.68 -6.51,-134.51 -4.83,-298.33 -4.53,-440.46 0.32,-153.99 -16.09,-296.98 130.31,-313.01 163.1,-17.85 170.71,143.17 171.66,289.95 0.99,153.15 5.82,339.42 -3.82,488.8zm-839.54 -35.98l-365.31 16.57c-5.91,-219.88 -84.12,-808 194.67,-802.47 191.44,3.81 184.29,197.43 182.39,309.23 -2.56,149.83 1.45,330.6 -11.75,476.67zm-2320.73 -1067.44c-1.86,20.85 -5.91,85.65 -10.51,103.18 -24.75,94.23 19.01,0.45 -31.23,60.03l173.66 99.42c62.9,37.89 115.44,67.48 173.86,104.95 92.52,59.34 261.07,171.39 333.11,197.35 31.97,-116.32 -8.8,-121.85 81.58,-228.73l182.13 17.6 1.84 398.25c131.17,0.75 113,65.09 333.58,159.91 35.51,-289.74 -117.88,-650.6 275.96,-584.31 134.44,244.25 33.43,473.06 78.5,749.01l714.45 359.32c48.85,26.78 188.95,96.28 239.14,113.73 202.26,-134.49 640.39,-429.41 873.51,-432.91 -27.36,-187.02 -62.11,-677.44 61.11,-771.68 176.54,-47.47 209.91,68.5 222.95,223.08 12.59,149.24 14.23,316.23 -7.48,458.02l338.55 -54.92c53.47,-251.81 -0.55,-663.72 11.17,-937.06 -672.15,-19.16 -1338.2,-82.9 -2011.49,-80.25 -346.63,1.36 -700.07,-1.85 -1046.72,13.3 -317.02,13.85 -673.53,36.18 -987.67,32.71z"/>
   <path class="fil4" d="M11112.25 25117.84l238.19 18.67c52.14,-219.67 257.09,-2240.28 278.52,-2481.08 153.2,-1721.33 229.36,-3373.21 377.92,-5100.49 35.63,-414.19 71.46,-833.23 133.81,-1239.48 19.17,-124.88 78.25,-148.84 131.97,-216.38l383.9 -290.92c4.06,-2.8 9.66,-6.76 13.63,-9.63 69.95,-50.63 125.15,-103.59 202.48,-140.79l61.77 115.74c202.37,-249.08 47.73,-841.12 124.39,-1170.02 32.58,-139.75 209.32,-542.67 295.02,-679.54 41.71,-66.61 53.59,-119.73 169.3,-139.78 114.19,95.4 147.11,259.47 231.73,402.69 231.25,391.41 227.83,646.75 234.86,1092.81 6.12,388.42 -13.32,290.84 184.64,500.55 3.94,-5.43 8.96,-21.01 10.79,-17.02 12.64,27.56 18.66,-28.64 20.88,-31.85 28.4,-40.93 0.99,-14.59 38.1,-50.69 86.91,19 413.81,179.62 505.63,233.49 124.17,72.85 393.08,168.64 543.58,196.51 -60.31,-90.22 -246.93,-148.82 -347.41,-207.9l-533.66 -303.28c-211.89,-107.02 -299.25,47.17 -321.48,-548.15 -21.99,-588.9 -8.33,-361.99 -192.97,-911.7 -58.63,-174.55 -162.44,-444.42 -359.24,-482.64 -94.7,-18.39 -176.32,7.6 -226.46,62.59 -68.27,74.87 -157.28,272.52 -197.7,362.21 -352.26,781.57 -95.21,1246.7 -254.65,1440.74 -32.49,39.54 -112.58,91.49 -160.9,118.81 -74.99,42.4 -91.69,59.49 -165.62,112.72l-351.45 231.1c-200.85,165.18 -232.86,549.05 -278.88,861.18 -195.12,1323.43 -248.2,2781.12 -368.36,4136.79 -61.83,697.63 -154.9,1383.41 -210.09,2060.11 -54.95,673.52 -173.91,1474.58 -212.24,2074.63z"/>
   <path class="fil4" d="M7578.92 20161.8c23.76,-341.32 -84.2,-785.53 129.34,-782.62 224.8,3.05 154.11,626.8 158.07,805.75l-287.41 -23.13zm-474.93 -1525.1l24.46 2102.73 121.76 46.28c253.56,98.62 741.11,276.83 959.96,390.81 236.27,123.05 134.32,43.5 169.68,17.49 -33.11,-9.88 -22.63,-1130.28 -23.33,-1285.06l7.66 -1097.96c-3.21,-90.9 26.63,-152.12 -58.49,-112.54 118.68,-22.01 52.95,12.38 85.29,-71.27 -227.04,20.99 -1084.6,47.06 -1286.99,9.52z"/>
   <path class="fil1" d="M12237.02 13041.4c281.94,-287.51 411.85,-1614.1 470.22,-2042.34 -57.77,-98.8 -235.83,-111.99 -360.03,-148.33l-749.61 -228.66c-119.59,-35.72 -249.08,-93.12 -377.02,-123.56 -118.95,153.85 -205.49,464.91 -424.91,632.63 78.74,166.59 112.36,142.23 179.81,253.28 13.64,22.46 23.29,42.41 44.59,70.86l1216.95 1586.12z"/>
   <path class="fil4" d="M10256.25 17953.52l-273.66 -20.53c-33.09,-135.5 -13.07,-299.05 -14.68,-444 -1.42,-126.94 -18.55,-343.59 136.68,-343.45 219.38,0.19 154.91,625.1 151.66,807.98zm-33.42 -1483.16c-250.46,-17.49 -668.38,4.34 -926,22.39 33.47,247.86 -5.49,297.43 -6.58,350.7l2.48 22.46c29.86,229.73 24.5,864.68 20.83,1099.3 -0.74,47.54 11.08,154.2 -13.7,203.01 139.72,60.77 1116.25,542.27 1153.32,591.85 65.82,-34.64 88.52,75.35 62.38,-67.52 94.47,-515.98 136.03,-985.23 224.68,-1493.33 86.91,-498.2 196.58,-959.72 294.05,-1428.74l-19.93 4.86c-68.51,125.47 -282.7,556.48 -294.9,694.25l-496.63 0.77z"/>
   <path class="fil1" d="M12744.77 10687.75c62.5,-66.25 163.95,-607.43 334.97,-702.57l-149.94 -230.01c-64.69,-187.81 47.3,-183.09 -85.26,-308.85 -261.1,-247.7 -147.74,-273.29 -274.76,-515.18 -4.22,1.43 -9.57,7.1 -11.25,7.23 -1.62,0.12 -11.19,1.27 -12.84,1.3 -2.97,0.03 -25.79,-14.41 -31.52,-19.62 7.71,126.73 41.5,106.81 -50.25,157.64 -163.4,90.51 -889.74,199.3 -1096.32,317.57 10.99,264.45 -24.62,430.39 -30.83,651.23 60.08,55.35 1250.47,625.59 1372.33,669.04 38.11,-34.3 31.1,-66.81 35.67,-27.78z"/>
   <path class="fil4" d="M15371.33 16465.66c-76.03,232.27 -36.48,1466.94 -30.3,1814.18 26.49,1487.51 82.44,4074.65 251.07,5396.99 45.94,-22.78 84.97,-45.19 133.43,-76.39l122.41 -76.47c3.24,-9.06 12.32,-7.15 18.34,-10.95 -123.69,-1173.34 -170.81,-2377.37 -233.05,-3559.44 -30.88,-586.57 -32.75,-1216.68 -87.92,-1790.85 -26.68,-277.66 -48.1,-579.43 -69.17,-858.4 -21.35,-282.57 -85.42,-569.65 -104.81,-838.67z"/>
   <path class="fil2" d="M1000.82 17084.86c50.28,323.1 361.58,1495.33 497.81,1707.23l459.34 -238.94c117.25,-58.21 353.48,-190.5 481.04,-231.88l36.35 -17.23c-62.93,-202.8 27.3,-552.15 -42.76,-718.82l-308.11 42.49c-115.19,-387.08 -345.83,-612.34 -742.46,-617.67 -67.22,-0.9 -142.9,2.4 -208.41,13l-172.8 61.82z"/>
   <path class="fil0" d="M7103.99 18636.7c202.39,37.54 1059.95,11.47 1286.99,-9.52 186.31,-14.24 2061.63,168.33 2062.2,132.89 -37.07,-49.58 -1013.6,-531.08 -1153.32,-591.85 -224.82,21.05 -455.52,-37.34 -676.92,-61.6 -213.63,-23.42 -453.88,-42.34 -682.26,-74.87 -200.66,-28.57 -228.78,80.7 -429.6,215.51l-61.44 53.52c-3.25,3.19 -7.5,8.65 -10.82,11.77l-65.92 49.84c-57.32,44.24 -46.67,53.99 -94.77,91.89 -66.14,52.11 -160.23,72.41 -174.14,182.42z"/>
   <path class="fil1" d="M8907.54 11982.85c128.75,79.59 89.01,55.42 150.74,245.9 58.65,180.99 32.23,152 17.46,338.44 143.58,9.33 691.29,728.41 724.36,720.69 33.26,-7.88 -324.69,-1293.76 -343.58,-1381.29 -215.45,18.13 -412.79,20.1 -626.79,-12.53l77.81 88.79z"/>
   <path class="fil1" d="M13469.57 9403.86c-103.02,-181.04 -202.89,-389.69 -223.49,-614.6 -14.92,-162.91 10.26,-362.12 115.54,-484.1l65.04 -80.93c24.46,-37.89 4.04,-1.74 33.69,-58.64 -228.96,38.33 -265.72,78.93 -363.43,222.59 -161.73,237.79 -119.53,598.21 48.5,849.58 165.18,247.08 46,189.4 324.15,166.1z"/>
   <path class="fil0" d="M9064.8 15871.59c13.2,-146.07 9.19,-326.84 11.75,-476.67 1.9,-111.8 9.05,-305.42 -182.39,-309.23 -278.79,-5.53 -200.58,582.59 -194.67,802.47l365.31 -16.57z"/>
   <path class="fil1" d="M14683.54 9397.28l140.49 51.04c312.81,-260.02 602.34,-1091.04 -175.62,-1285.47l44.71 55.4c420.49,506.55 117.89,850.86 -9.58,1179.03z"/>
   <path class="fil0" d="M6129.75 19974.04l307.89 10.75c-50.18,-342.04 105.67,-854.65 -148.92,-868.07 -178.41,-9.4 -157.94,187.4 -159.31,349.11 -1.41,166.92 12.79,345.23 0.34,508.21z"/>
   <path class="fil0" d="M2825.24 18604.89l289.16 -5.91c9.77,-165.99 8.7,-340.08 6.08,-505.4 -2.5,-157.47 17.77,-340.96 -140.03,-363.48 -252.56,-36.06 -141.63,667.39 -155.21,874.79z"/>
   <path class="fil0" d="M6157.49 17752.74c-74.22,344.34 -15.76,514.83 -43.17,855.93l300.02 -8.09c-33.91,-594.72 123.67,-929.25 -256.85,-847.84z"/>
   <path class="fil0" d="M6112.75 17327.26l310.47 -5.63c-22.96,-215.98 63.66,-744.64 -135.48,-771.79 -265.96,-36.25 -172.25,584.65 -174.99,777.42z"/>
   <path class="fil0" d="M9904.34 15907.57c9.64,-149.38 4.81,-335.65 3.82,-488.8 -0.95,-146.78 -8.56,-307.8 -171.66,-289.95 -146.4,16.03 -129.99,159.02 -130.31,313.01 -0.3,142.13 -1.98,305.95 4.53,440.46 5.69,2.73 13.29,5.32 17.71,6.68 4.54,1.4 12.57,4.77 18.34,6.38 71.1,19.82 189.05,32.94 257.57,12.22z"/>
   <path class="fil0" d="M10256.25 17953.52c3.25,-182.88 67.72,-807.79 -151.66,-807.98 -155.23,-0.14 -138.1,216.51 -136.68,343.45 1.61,144.95 -18.41,308.5 14.68,444l273.66 20.53z"/>
   <path class="fil0" d="M2821.92 17311.22l306.18 9.25c-3.42,-180.45 60.72,-755.54 -144.59,-771.56 -230.4,-17.98 -143.5,590.5 -161.59,762.31z"/>
   <path class="fil0" d="M7578.92 20161.8l287.41 23.13c-3.96,-178.95 66.73,-802.7 -158.07,-805.75 -213.54,-2.91 -105.58,441.3 -129.34,782.62z"/>
   <path class="fil0" d="M2845.83 19888.15l270.1 7.06c9.13,-140.4 6.17,-309.14 4.29,-452.85 -7.31,-559.42 -261.46,-296.97 -277.17,-259.37 -24.46,58.56 -11.67,641.57 2.78,705.16z"/>
   <path class="fil4" d="M7713.4 14377.88c63.54,-113.89 99.95,-313.77 155.27,-448.35 130.78,-318.21 274.86,-635.8 479.16,-895.12l255.13 -254.23c-192.61,53.95 -400.82,264.52 -510.55,416.97 -20.94,29.08 -8.33,12.13 -29.17,40.47l-106.31 151.34c-146.23,248.8 -255.78,661.15 -243.53,988.92z"/>
   <path class="fil0" d="M8531.28 17768.23l106.84 17.23c37.49,3.39 67.72,3.79 105.05,5.45 25.97,-145.32 14.71,-294.9 14.2,-441.41 -0.78,-225.94 17.99,-218.35 -95.2,-348.91 -153.41,16.04 -130.88,151.14 -128.19,302.43 2.73,153.91 -0.7,311.1 -2.7,465.21z"/>
   <path class="fil0" d="M8735.09 20205.54l246.44 0.04c-40.08,-205.54 38.18,-550.93 -48.43,-664.25 -22.1,-28.91 -28.21,-43.86 -68.61,-52.71 -200.36,-43.88 -99.1,559.73 -129.4,716.92z"/>
   <path class="fil0" d="M7620.04 17605.42l208.23 54.03c5.89,-133.19 51.57,-771.14 -86.9,-802.1 -123.82,-27.69 -116.25,183.64 -116.37,282.29 -0.19,159.82 11,309.88 -4.96,465.78z"/>
   <path class="fil0" d="M8093.8 17704.03l201.98 46.18c34.22,-92.15 38.43,-676.89 -44.22,-797.78l-112.53 0.22c-73.37,254.05 5.5,519.11 -45.23,751.38z"/>
   <path class="fil0" d="M7206.87 16779.97l-27.53 755.47 217.23 41.49c-24.07,-126 -12.76,-364.55 -12.64,-507.51 0.12,-155.64 13.53,-338.06 -177.06,-289.45z"/>
   <path class="fil0" d="M9623.78 20219.47l209.27 -2.35c-9.32,-162.78 57.29,-654.48 -100.92,-663.45 -165.42,-9.38 -134.73,515.64 -108.35,665.8z"/>
   <path class="fil4" d="M13820.34 12637.55c-280.89,-21.11 -283.18,-87.46 -436.49,-357.23 -164.67,-289.75 -150.82,-538.24 -179.47,-608.47 -19.07,-46.73 -18.88,-40.75 -37.95,-66.08 -22.83,293.32 57.21,744.02 235.57,955.63 54.9,65.14 122.57,156.22 180.35,172.21 107.55,29.74 243.44,24.25 237.99,-96.06z"/>
   <path class="fil0" d="M9208.51 19546.6l-13.07 663.85 211.11 -0.01c0,-154.35 2.66,-310.59 0.97,-464.51 -1.78,-161.83 -41.57,-230.41 -199.01,-199.33z"/>
   <path class="fil4" d="M13318.07 16490.62l176.22 -121.67c22.23,-19.66 39.04,-27.38 75.37,-61.77l74.05 109.62c66.45,93.58 208.25,227.74 312.88,264.41 -52.76,-130.22 -104.95,-236.15 -178.03,-330.8l-106 -151.69c-64.98,-73.88 -54.16,-89.96 -132.03,-125.8 -59.71,90.14 -193.11,284.96 -222.46,417.7z"/>
   <path class="fil4" d="M12280.45 17821.62c81.83,-24.37 83.64,-31.98 153.3,-71.33 91.54,-51.71 183.89,-100.68 252.44,-190.99l137.47 -164.81c119.81,-168.18 249.46,-330.34 312.61,-550.41l-403.93 505.41c-269.68,283.7 -115.32,65.63 -340.59,333.2 -94.39,112.12 -67.9,37.15 -111.3,138.93z"/>
   <path class="fil4" d="M14985.01 17804.81l-477.42 -371.17c-58.32,-61 -10.79,-42.06 -94.28,-112.37 -107.72,-90.72 -86.2,-98.02 -145.67,-157.82l-151.69 -156.31c-2.8,-3.1 -8.2,-9.38 -12.55,-13.82 113.41,248.51 48.83,163.11 231.74,379.51 115.4,136.52 -5.44,79.19 209.02,212.89 86.37,53.85 194.07,170.64 440.85,219.09z"/>
   <path class="fil0" d="M7713.4 14377.88c-12.25,-327.77 97.3,-740.12 243.53,-988.92l106.31 -151.34c20.84,-28.34 8.23,-11.39 29.17,-40.47 109.73,-152.45 317.94,-363.02 510.55,-416.97l-255.13 254.23c-204.3,259.32 -348.38,576.91 -479.16,895.12 -55.32,134.58 -91.73,334.46 -155.27,448.35zm948.39 -2515.72l27.85 95.69c-139.98,39.42 -201.14,85.68 -236.03,227.59 -42.77,173.99 -47.07,219.53 -27.72,397.66 -231.34,51.47 -503.86,203.88 -674.48,320.27l-144.98 111.52c-66.01,46.44 -59.8,54.91 -119.22,111.84 -450.35,431.53 -758.25,1038.83 -743.14,1677.42 314.14,3.47 670.65,-18.86 987.67,-32.71 346.65,-15.15 700.09,-11.94 1046.72,-13.3 673.29,-2.65 1339.34,61.09 2011.49,80.25 85.82,-437.24 -180.94,-968.28 -405.06,-1328.11 -186.58,-256.73 -295.23,-404.79 -563.66,-599.18 -78.16,-56.6 -144.27,-93.02 -224.08,-143.62 -108.7,-56.32 -385.67,-191.47 -521.41,-200.29 14.77,-186.44 41.19,-157.45 -17.46,-338.44 -61.73,-190.48 -21.99,-166.31 -150.74,-245.9l-93 -18.05c5.03,-91.07 40.35,-210.25 28.54,-288.01 -14.46,-95.24 -57.56,-103.42 -68.57,-231.38l-33.36 36.13c-4.83,6.01 -9.52,10.99 -14.4,17.55 -7,9.41 -25.64,40.22 -30.49,49.77 -51.69,101.8 -32.17,202.12 -34.47,313.3z"/>
  </g>
 </g>
</svg>
