<svg width="679" height="680" viewBox="0 0 679 680" fill="none" xmlns="http://www.w3.org/2000/svg">
<path d="M666.25 0.890646C658.981 0.890646 654.141 5.7369 654.141 13V140.161L252.062 140.167V88.0921C252.062 54.1811 224.206 27.5389 191.509 27.5389H127.325C93.4141 27.5389 66.7719 54.1811 66.7719 88.0921V140.167H24.3766V12.9999C24.3766 5.73066 19.5303 0.890503 12.2672 0.890503C4.99799 0.890503 0.157837 5.73675 0.157837 12.9999V666.984C0.157837 674.253 5.00409 679.094 12.2672 679.094C19.5364 679.094 24.3766 674.247 24.3766 666.984V578.575H654.142V666.984C654.142 674.253 658.988 679.094 666.252 679.094C673.521 679.094 678.361 674.247 678.361 666.984V12.9999C678.367 5.73675 673.521 0.890503 666.252 0.890503L666.25 0.890646ZM90.9844 88.0922C90.9844 67.5047 106.731 51.7578 127.319 51.7578H191.503C212.091 51.7578 227.838 67.5047 227.838 88.0922V140.167H90.9844V88.0922ZM654.141 554.358H24.375V490.173H654.141V554.358ZM90.9844 465.948V413.873C90.9844 393.286 106.731 377.539 127.319 377.539H191.503C212.091 377.539 227.838 393.286 227.838 413.873V465.948H90.9844ZM654.141 465.948H252.062V413.873C252.062 379.963 224.206 353.32 191.509 353.32H127.325C93.4141 353.32 66.7719 379.963 66.7719 413.873V465.948H24.3766V251.589H654.142L654.141 465.948ZM654.141 227.355H24.375V163.17H654.141V227.355Z" fill="#1E1E1E"/>
</svg>
