<svg width="63" height="48" viewBox="0 0 63 48" fill="none" xmlns="http://www.w3.org/2000/svg">
<path d="M3.78005 7.56009C5.86398 7.56009 7.56009 5.86381 7.56009 3.78004C7.56009 1.69627 5.86382 0 3.78005 0C1.69627 0 0 1.69627 0 3.78004C0.000625339 5.86398 1.69627 7.56009 3.78005 7.56009ZM3.78005 2.52024C4.47403 2.52024 5.03986 3.08607 5.03986 3.78006C5.03986 4.47405 4.47403 5.03988 3.78005 5.03988C3.08606 5.03988 2.52023 4.47405 2.52023 3.78006C2.52023 3.08545 3.08606 2.52024 3.78005 2.52024Z" fill="#1E1E1E"/>
<path d="M61.7396 10.081H56.6997C56.0032 10.081 55.4399 10.6455 55.4399 11.3408V12.6006H7.56072V11.3408C7.56072 10.6455 6.99615 10.081 6.3009 10.081H1.26105C0.565803 10.081 0.00123793 10.6455 0.00123793 11.3408V46.6204C0.00123793 47.3169 0.565803 47.8802 1.26105 47.8802H6.3009C6.99615 47.8802 7.56072 47.3169 7.56072 46.6204V35.2807H55.4399V46.6204C55.4399 47.3169 56.0032 47.8802 56.6997 47.8802H61.7396C62.4361 47.8802 62.9994 47.3169 62.9994 46.6204L63 11.3408C63 10.6455 62.4367 10.081 61.7396 10.081ZM5.04129 45.3605H2.52105V12.6003H5.04065L5.04129 45.3605ZM17.6407 15.1211H20.1603V32.7609H17.6407V15.1211ZM15.1211 32.7609H12.6015L12.6009 15.1211H15.1205L15.1211 32.7609ZM22.6806 15.1211H25.2002V32.7609H22.6806V15.1211ZM27.7204 15.1211H30.24V32.7609H27.7204V15.1211ZM32.7603 15.1211H35.2799V32.7609H32.7603V15.1211ZM37.8001 15.1211H40.3197V32.7609H37.8001V15.1211ZM42.84 15.1211H45.3596V32.7609H42.84V15.1211ZM47.8798 15.1211H50.3994V32.7609H47.8798V15.1211ZM7.56009 15.1211H10.0797V32.7609H7.56009V15.1211ZM52.9184 32.7609V15.1211H55.438V32.7609H52.9184ZM60.4778 45.361H57.9582V12.6007H60.4778V45.361Z" fill="#1E1E1E"/>
<path d="M59.2187 7.56009C61.3026 7.56009 62.9987 5.86381 62.9987 3.78004C62.9987 1.69627 61.3024 0 59.2187 0C57.1347 0 55.4386 1.69627 55.4386 3.78004C55.4386 5.86381 57.1349 7.56009 59.2187 7.56009ZM59.2187 2.52024C59.9139 2.52024 60.4785 3.08607 60.4785 3.78006C60.4785 4.47405 59.9139 5.03988 59.2187 5.03988C58.5234 5.03988 57.9589 4.47405 57.9589 3.78006C57.9589 3.08545 58.5228 2.52024 59.2187 2.52024Z" fill="#1E1E1E"/>
</svg>
