<svg width="63" height="46" viewBox="0 0 63 46" fill="none" xmlns="http://www.w3.org/2000/svg">
<path d="M62.2295 29.1803H60.2821V12.8218C60.2811 11.7707 59.8629 10.7635 59.1197 10.0203C58.3765 9.27706 57.3688 8.85942 56.3177 8.85889H41.2792C40.8669 8.87602 40.5414 9.2155 40.5414 9.62833C40.5414 10.0412 40.8669 10.3806 41.2792 10.3978H56.3177C56.9619 10.3978 57.5792 10.6537 58.0343 11.1089C58.49 11.5645 58.7454 12.1819 58.7454 12.826V29.1804H7.73434V24.1788C7.73541 23.5052 8.00313 22.86 8.47968 22.3839C8.95624 21.9074 9.60199 21.6397 10.2751 21.6391H52.7231C53.3967 21.6397 54.0424 21.9074 54.5185 22.3839C54.995 22.86 55.2633 23.5052 55.2643 24.1788V26.9995C55.2552 27.2089 55.3323 27.4134 55.478 27.5644C55.6231 27.716 55.8239 27.8016 56.0338 27.8016C56.2437 27.8016 56.4445 27.716 56.5896 27.5644C56.7347 27.4134 56.8118 27.2089 56.8032 26.9995V24.1788C56.8016 23.0972 56.3717 22.0606 55.6065 21.296C54.8413 20.5314 53.8047 20.1014 52.7231 20.1003H51.2083V16.585C51.2072 15.7535 50.8763 14.9562 50.2884 14.3677C49.7 13.7798 48.9027 13.4489 48.0711 13.4478H37.6015C36.7699 13.4494 35.9731 13.7809 35.3858 14.3688C34.7984 14.9567 34.468 15.7539 34.467 16.585V20.1003H12.9174V16.585C12.9185 15.7026 13.6333 14.9873 14.5157 14.9867H24.9853C25.8678 14.9883 26.582 15.7032 26.5836 16.585V18.1769C26.6008 18.5892 26.9403 18.9147 27.3531 18.9147C27.7659 18.9147 28.1054 18.5892 28.1225 18.1769V16.585C28.1215 15.7535 27.7905 14.9562 27.2026 14.3677C26.6147 13.7798 25.8175 13.4489 24.9853 13.4478H14.5157C13.6841 13.4489 12.8868 13.7798 12.2983 14.3677C11.7104 14.9562 11.3795 15.7534 11.3784 16.585V20.1003H10.2749C9.19328 20.1014 8.15667 20.5313 7.39152 21.296C6.6269 22.0606 6.19639 23.0973 6.19479 24.1788V29.1804H4.25271V12.8219C4.25271 12.1777 4.50866 11.5603 4.96378 11.1053C5.41891 10.6496 6.03682 10.3942 6.68037 10.3942H24.8387C24.9104 10.3931 24.9816 10.3819 25.0502 10.3615C26.6555 12.1242 28.7041 13.3424 31.2357 14.0482C31.3032 14.0669 31.3728 14.0765 31.4424 14.0765C31.5157 14.076 31.5891 14.0658 31.6592 14.0455C36.6496 12.5778 39.0698 9.2125 40.2269 6.64989C40.7688 5.44834 40.7811 4.07439 40.2607 2.86319C39.7408 1.65255 38.7357 0.715503 37.4914 0.28125C36.2464 -0.153003 34.8773 -0.0443047 33.7165 0.58003C32.8624 1.05658 32.0935 1.67235 31.4424 2.40217C30.7907 1.67396 30.0224 1.05979 29.1683 0.585376C28.3903 0.151658 27.5035 -0.0480588 26.6147 0.00977309C26.1955 0.0456483 25.8828 0.411361 25.9128 0.831687C25.9422 1.25148 26.3037 1.56953 26.724 1.54597C27.3183 1.50581 27.9111 1.64074 28.4289 1.93417C29.3654 2.45944 30.1729 3.18658 30.7935 4.06253C30.9348 4.28367 31.1784 4.41807 31.4408 4.41861C31.7032 4.41807 31.9468 4.28421 32.0882 4.06414C32.7098 3.18708 33.519 2.45941 34.457 1.93414C35.9016 1.14222 37.2734 1.65249 38.076 2.39409C38.8787 3.1357 39.5126 4.49298 38.8246 6.01588C37.8169 8.24979 35.7222 11.1696 31.4369 12.505C26.8508 11.1562 25.0287 8.16193 24.0601 6.01698C23.9482 5.76907 23.8668 5.50777 23.8176 5.24004C23.726 4.83952 23.3362 4.58144 22.9314 4.65373C22.5271 4.72548 22.2503 5.10243 22.3028 5.50991C22.374 5.90187 22.4934 6.2831 22.6572 6.64561C23.0026 7.41345 23.4117 8.15124 23.8797 8.85114H6.68089C5.63034 8.85221 4.62312 9.26987 3.8799 10.0131C3.13723 10.7557 2.71904 11.7635 2.71798 12.8141V29.1808H0.768908C0.344292 29.1813 0 29.5262 0 29.9508V33.3878C0 34.5326 0.45513 35.6302 1.2642 36.4399C2.07379 37.2495 3.17146 37.7041 4.31631 37.7041H6.69154V44.3662C6.69154 44.5708 6.7724 44.7662 6.91643 44.9102C7.06047 45.0548 7.25644 45.1362 7.46045 45.1362H11.6606C12.0862 45.1362 12.4311 44.7914 12.4311 44.3657V37.708H50.5694V44.3701C50.5689 44.5741 50.6497 44.7701 50.7943 44.9146C50.9383 45.0592 51.1343 45.14 51.3383 45.14H55.5384C55.7424 45.14 55.9384 45.0592 56.0825 44.9146C56.227 44.7701 56.3079 44.5741 56.3073 44.3701V37.708H58.6842C59.8285 37.708 60.9266 37.2534 61.7358 36.4437C62.5454 35.6347 63 34.5365 63 33.3916V29.9563C63.0016 29.7512 62.9213 29.5541 62.7767 29.4085C62.6321 29.2629 62.4346 29.1803 62.2295 29.1803ZM36.003 16.5849C36.0036 15.7025 36.7189 14.9872 37.6013 14.9866H48.0709C48.9528 14.9882 49.6676 15.7031 49.6692 16.5849V20.1002H36.003V16.5849ZM10.8923 43.601H8.2311V37.7079H10.8923V43.601ZM54.7686 43.601H52.1085V37.7079H54.7686V43.601ZM61.46 33.3932C61.4589 34.1289 61.1666 34.8347 60.6461 35.355C60.1257 35.8755 59.42 36.1684 58.6843 36.1689H4.31631C3.58007 36.1684 2.87428 35.8755 2.35395 35.355C1.83349 34.8345 1.54114 34.1288 1.5406 33.3932V30.725H61.4601L61.46 33.3932Z" fill="#D9D9D9"/>
<path d="M23.4538 1.5858L23.3606 1.69236C23.0854 2.01577 23.1245 2.50142 23.4479 2.77665C23.7718 3.05187 24.2575 3.01279 24.5327 2.68883C24.5531 2.66474 24.5745 2.64011 24.5959 2.61708C24.8636 2.29956 24.8315 1.82783 24.5231 1.54939C24.2152 1.2715 23.7424 1.28755 23.4538 1.5858Z" fill="#D9D9D9"/>
</svg>
