<svg width="63" height="46" viewBox="0 0 63 46" fill="none" xmlns="http://www.w3.org/2000/svg">
<path d="M58.6546 21.8334V3.25819C58.6546 2.38771 58.315 1.56956 57.7 0.954022C57.0845 0.338497 56.2657 0 55.3959 0H7.60297C6.73304 0 5.91435 0.339022 5.29881 0.954561C4.68382 1.56955 4.34479 2.38833 4.34479 3.25817V21.8333C1.86869 22.3378 0 24.5321 0 27.1548V40.1893C0 40.7892 0.485628 41.2753 1.08607 41.2753H4.3448V44.5341C4.3448 45.134 4.83043 45.6201 5.43087 45.6201H9.77565C10.3761 45.6201 10.8617 45.134 10.8617 44.5341V41.2753H52.1377V44.5341C52.1377 45.134 52.6234 45.6201 53.2238 45.6201H57.5686C58.169 45.6201 58.6547 45.134 58.6547 44.5341V41.2753H61.9134C62.5138 41.2753 62.9995 40.7892 62.9995 40.1893L63 27.1548C63 24.532 61.1307 22.3378 58.6552 21.8333L58.6546 21.8334ZM6.51664 3.25819C6.51664 2.97252 6.63252 2.69278 6.83465 2.49012C7.03732 2.28854 7.31758 2.17212 7.60271 2.17212H55.3956C55.6807 2.17212 55.961 2.288 56.1637 2.49012C56.3669 2.69279 56.4822 2.97252 56.4822 3.25819V21.723H43.4477V14.1195C43.4477 13.249 43.1082 12.4308 42.4932 11.8153C41.8782 11.2003 41.0588 10.8613 40.1896 10.8613H22.8107C21.9408 10.8613 21.1221 11.2003 20.5065 11.8158C19.8915 12.4314 19.552 13.2496 19.552 14.12V21.7235L6.51748 21.723L6.51664 3.25819ZM41.2757 21.723H21.7237V14.1195C21.7237 13.8338 21.8395 13.5541 22.0417 13.3514C22.2449 13.1498 22.5246 13.0334 22.8103 13.0334H40.1891C40.4743 13.0334 40.7545 13.1493 40.9572 13.3514C41.1593 13.5546 41.2752 13.8338 41.2752 14.12L41.2757 21.723ZM5.43072 23.8956H57.5687C59.3656 23.8956 60.8274 25.3574 60.8274 27.1544V30.4131L2.17254 30.4126V27.1538C2.17254 25.3573 3.63433 23.8957 5.43127 23.8957L5.43072 23.8956ZM8.68944 43.4477H6.51678V41.2756H8.68889L8.68944 43.4477ZM56.4823 43.4477H54.3102V41.2756H56.4823V43.4477ZM60.8271 39.1029H2.17227V32.586H60.8271V39.1029Z" fill="#D9D9D9"/>
</svg>
