<svg width="63" height="55" viewBox="0 0 63 55" fill="none" xmlns="http://www.w3.org/2000/svg">
<path d="M62.3194 15.6738L31.9874 0.118675C31.6771 -0.0395585 31.32 -0.0395585 31.0097 0.118675L0.677757 15.6738C0.0930665 15.9736 -0.162236 16.7448 0.10753 17.3938C0.378453 18.0434 1.0714 18.3271 1.65547 18.0273L31.4998 2.7243L61.3442 18.0291C61.5022 18.1096 61.6683 18.1469 61.8316 18.1469C62.2727 18.1469 62.6947 17.8683 62.8921 17.3936C63.1625 16.7427 62.9072 15.9728 62.3213 15.6737L62.3194 15.6738Z" fill="black"/>
<path d="M52.4982 36.2932H48.8199L46.6501 21.8206C46.5552 21.1973 46.0689 20.738 45.4981 20.738H17.4989C16.9286 20.738 16.4418 21.1966 16.3486 21.8206L14.1772 36.2932H10.4989C9.85513 36.2932 9.33239 36.8727 9.33239 37.5893V47.9594C9.33239 48.676 9.85513 49.2555 10.4989 49.2555H13.9989V53.1445C13.9989 53.861 14.5216 54.4406 15.1654 54.4406H19.8319C20.4756 54.4406 20.9984 53.861 20.9984 53.1445V49.2555H41.9982V53.1445C41.9982 53.861 42.5198 54.4406 43.1647 54.4406H47.8312C48.4761 54.4406 48.9977 53.861 48.9977 53.1445V49.2555H52.4977C53.1426 49.2555 53.6642 48.676 53.6642 47.9594V37.5893C53.6648 36.8727 53.1431 36.2932 52.4982 36.2932ZM18.488 23.3309H44.5103L46.4536 36.2932H16.5441L18.488 23.3309ZM18.6663 51.8477H16.3334V49.2555H18.6663V51.8477ZM46.6656 51.8477H44.3326V49.2555H46.6656V51.8477ZM51.3321 46.6627H11.6666V38.8855H51.3321V46.6627Z" fill="black"/>
<path d="M38.4978 41.4785H24.4982C23.8545 41.4785 23.3317 42.0581 23.3317 42.7746C23.3317 43.4912 23.8545 44.0707 24.4982 44.0707H38.4978C39.1427 44.0707 39.6643 43.4912 39.6643 42.7746C39.6643 42.0581 39.1427 41.4785 38.4978 41.4785Z" fill="black"/>
<path d="M17.4995 41.4785H15.1665C14.5228 41.4785 14 42.0581 14 42.7746C14 43.4912 14.5228 44.0707 15.1665 44.0707H17.4995C18.1432 44.0707 18.666 43.4912 18.666 42.7746C18.666 42.0581 18.1432 41.4785 17.4995 41.4785Z" fill="black"/>
<path d="M45.4973 41.4785C44.8524 41.4785 44.3308 42.0581 44.3308 42.7746C44.3308 43.4912 44.8524 44.0707 45.4973 44.0707H47.8303C48.4752 44.0707 48.9968 43.4912 48.9968 42.7746C48.9968 42.0581 48.4752 41.4785 47.8303 41.4785H45.4973Z" fill="black"/>
</svg>
