<svg width="150" height="117" viewBox="0 0 150 117" fill="none" xmlns="http://www.w3.org/2000/svg">
<path d="M0.881735 64.2427C5.10343 73.7261 24.0751 81.7808 31.9623 87.2275C44.3807 95.8016 58.2718 109.46 72.3591 115.034C91.6316 122.659 88.8274 97.5341 88.8274 86.2866C92.246 73.6469 128.036 82.6765 137.623 80.6543C150.768 77.8814 151.228 60.2026 148.332 48.995C144.696 34.9306 125.47 39.6293 114.297 39.6293C106.278 39.6293 92.3211 42.8179 88.826 32.954C86.3539 25.9765 90.6552 16.6488 88.8061 9.43733C85.3932 -3.87221 74.7827 0.372378 66.6078 6.24159C50.9159 17.5106 35.4989 29.1864 19.9516 40.6541C13.5259 45.3953 -3.86586 53.5833 0.879318 64.2434L0.881735 64.2427Z" fill="black"/>
</svg>
