<svg width="738" height="740" viewBox="0 0 738 740" fill="none" xmlns="http://www.w3.org/2000/svg">
<path d="M731.641 371.234L381.297 177.875V122.4C396.574 119.281 410.1 110.474 419.133 97.7547C428.166 85.0411 432.03 69.3734 429.942 53.9125C427.855 38.4584 419.975 24.3718 407.897 14.5078C395.819 4.64372 380.444 -0.262693 364.88 0.780901C349.322 1.8246 334.734 8.73996 324.084 20.1293C313.428 31.5186 307.502 46.5325 307.495 62.1278C307.495 68.9211 313.007 74.4264 319.8 74.4264C326.593 74.4264 332.099 68.9211 332.099 62.1278C332.099 52.3439 335.987 42.9559 342.908 36.0356C349.823 29.1142 359.211 25.2262 369 25.2262C378.784 25.2262 388.172 29.1142 395.092 36.0356C402.008 42.957 405.896 52.345 405.896 62.1278C405.896 71.9178 402.008 81.2996 395.092 88.22C388.171 95.1414 378.783 99.0293 369 99.0293C362.207 99.0293 356.696 104.535 356.696 111.328V177.875L6.35181 371.234C2.45165 373.389 0.0163184 377.49 -0.00805664 381.946V431.146C-0.00805664 434.411 1.292 437.536 3.59914 439.843C5.90633 442.151 9.03132 443.451 12.2966 443.451H135.295V702.466C135.295 712.256 139.183 721.643 146.104 728.558C153.026 735.48 162.408 739.368 172.197 739.368H565.79C575.58 739.368 584.967 735.48 591.883 728.558C598.804 721.643 602.692 712.255 602.692 702.466V443.451H725.697C728.956 443.451 732.087 442.151 734.394 439.843C736.695 437.536 737.995 434.411 737.995 431.146V381.946C737.971 377.49 735.542 373.389 731.635 371.234L731.641 371.234ZM578.1 591.047H159.897V394.25L578.1 394.256V591.047ZM578.1 640.247H159.897V615.65H578.1V640.247ZM565.801 714.759L172.192 714.765C165.399 714.765 159.894 709.254 159.894 702.461V664.851H578.097V702.467V702.461C578.097 705.726 576.797 708.857 574.489 711.158C572.182 713.466 569.057 714.766 565.792 714.766L565.801 714.759ZM713.397 418.853H602.697V381.951C602.697 378.692 601.403 375.561 599.096 373.254C596.789 370.947 593.657 369.653 590.398 369.653H147.601C140.808 369.653 135.303 375.158 135.303 381.951V418.853H24.6027V389.22L369.009 199.205L713.4 389.22L713.397 418.853Z" fill="#1E1E1E"/>
</svg>
