<svg width="738" height="640" viewBox="0 0 738 640" fill="none" xmlns="http://www.w3.org/2000/svg">
<path d="M664.203 0.1875H73.7969C33.1047 0.1875 -0.00622559 33.2984 -0.00622559 73.9906V467.6C-0.00622559 508.286 33.1047 541.397 73.7906 541.397H98.3875L54.1063 600.436C45.9397 611.306 48.1553 626.736 59.0256 634.878C63.4628 638.198 68.6325 639.798 73.7717 639.798C81.273 639.798 88.6277 636.404 93.4733 629.959L159.898 541.396H578.101L644.52 629.959C649.342 636.404 656.721 639.798 664.222 639.798C669.361 639.798 674.531 638.198 678.956 634.878C689.826 626.736 692.042 611.312 683.875 600.436L639.6 541.397H664.197C704.883 541.397 737.994 508.286 737.994 467.6L738 73.9906C738 33.2984 704.889 0.1875 664.197 0.1875H664.203ZM688.806 467.594C688.806 481.15 677.783 492.191 664.209 492.191L73.8032 492.197C60.2228 492.197 49.2063 481.149 49.2063 467.6L49.2002 73.9905C49.2002 60.4345 60.2232 49.3936 73.7971 49.3936H664.203C677.784 49.3936 688.8 60.4409 688.8 73.9905L688.806 467.594Z" fill="#1E1E1E"/>
</svg>
